{"accessors":[{"bufferView":0,"componentType":5126,"count":314,"max":[1.0,2.5,0.5],"min":[-1.0,0.0,-1.0],"normalized":false,"type":"VEC3"},{"bufferView":1,"componentType":5126,"count":314,"max":[1.0,0.30009719729423523,0.980789840221405,1.0],"min":[0.19506654143333435,-0.3428456485271454,-0.9807804226875305,-1.0],"normalized":false,"type":"VEC4"},{"bufferView":2,"componentType":5126,"count":314,"max":[1.0,1.0,1.0],"min":[-1.0,-1.0,-1.0],"normalized":false,"type":"VEC3"},{"bufferView":3,"componentType":5126,"count":314,"max":[0.45335501432418823,0.4167720079421997],"min":[0.2850089967250824,0.09053999930620193],"normalized":false,"type":"VEC2"},{"bufferView":4,"componentType":5123,"count":684,"max":[313],"min":[0],"normalized":false,"type":"SCALAR"},{"bufferView":5,"componentType":5126,"count":246,"max":[1.0,2.5,1.2400330305099487],"min":[-1.0,0.0,0.5],"normalized":false,"type":"VEC3"},{"bufferView":6,"componentType":5126,"count":246,"max":[1.0,0.38614338636398315,0.9999755024909973,1.0],"min":[-0.3144000768661499,-0.3860412538051605,-0.999764084815979,-1.0],"normalized":false,"type":"VEC4"},{"bufferView":7,"componentType":5126,"count":246,"max":[0.9621866941452026,0.9838582277297974,1.0],"min":[-0.9621974229812622,-0.9838602542877197,-0.9923737645149231],"normalized":false,"type":"VEC3"},{"bufferView":8,"componentType":5126,"count":246,"max":[0.4382849931716919,0.4304090142250061],"min":[0.2850089967250824,0.045802000910043716],"normalized":false,"type":"VEC2"},{"bufferView":9,"componentType":5121,"count":594,"max":[245],"min":[0],"normalized":false,"type":"SCALAR"}],"asset":{"generator":"Godot Engine v4.6.1.stable.official@14d19694e0c88a3f9e82d899a0400f27a24c176e","version":"2.0"},"bufferViews":[{"buffer":0,"byteLength":3768,"byteStride":12,"target":34962},{"buffer":0,"byteLength":5024,"byteOffset":3768,"byteStride":16,"target":34962},{"buffer":0,"byteLength":3768,"byteOffset":8792,"byteStride":12,"target":34962},{"buffer":0,"byteLength":2512,"byteOffset":12560,"byteStride":8,"target":34962},{"buffer":0,"byteLength":1368,"byteOffset":15072,"target":34963},{"buffer":0,"byteLength":2952,"byteOffset":16440,"byteStride":12,"target":34962},{"buffer":0,"byteLength":3936,"byteOffset":19392,"byteStride":16,"target":34962},{"buffer":0,"byteLength":2952,"byteOffset":23328,"byteStride":12,"target":34962},{"buffer":0,"byteLength":1968,"byteOffset":26280,"byteStride":8,"target":34962},{"buffer":0,"byteLength":594,"byteOffset":28248,"target":34963}],"buffers":[{"byteLength":28842,"uri":"Fridge0.bin"}],"extensionsUsed":["GODOT_single_root"],"images":[{"uri":"textures%2F.png"}],"materials":[{"name":"restaurant","pbrMetallicRoughness":{"baseColorFactor":[1.0,1.0,1.0,1.0],"baseColorTexture":{"index":0},"metallicFactor":0.5,"roughnessFactor":1.0}},{"name":"restaurant2","pbrMetallicRoughness":{"baseColorFactor":[1.0,1.0,1.0,1.0],"baseColorTexture":{"index":1},"metallicFactor":0.5,"roughnessFactor":1.0}}],"meshes":[{"primitives":[{"attributes":{"NORMAL":2,"POSITION":0,"TANGENT":1,"TEXCOORD_0":3},"indices":4,"material":0,"mode":4}]},{"primitives":[{"attributes":{"NORMAL":7,"POSITION":5,"TANGENT":6,"TEXCOORD_0":8},"indices":9,"material":1,"mode":4}]}],"nodes":[{"children":[1,2],"name":"Fridge"},{"mesh":0,"name":"FridgeB","translation":[-1.1325976848602295,0.0,1.17201566696167]},{"mesh":1,"name":"FridgeBDoor","rotation":[0.0,0.5143871903419495,0.0,0.8575580716133118],"translation":[-1.2552011013031006,0.0,2.239757537841797]}],"samplers":[{"magFilter":9729,"minFilter":9987,"wrapS":10497,"wrapT":10497}],"scene":0,"scenes":[{"nodes":[0]}],"textures":[{"sampler":0,"source":0},{"sampler":0,"source":0}]}