# Blender 4.5.3 LTS
# www.blender.org
mtllib SYONEMPTYCOUNTER.mtl
o kitchencounter_straight_A_Cube.896
v -1.000000 0.000000 0.800000
v -1.000000 0.800000 0.800000
v -1.000000 -0.000000 -1.000000
v -1.000000 0.800000 -1.000000
v 1.000000 0.000000 0.800000
v 1.000000 0.800000 0.800000
v 1.000000 -0.000000 -1.000000
v 1.000000 0.800000 -1.000000
v -1.000000 1.000000 0.950000
v -1.000000 1.000000 -1.000000
v 1.000000 1.000000 -1.000000
v 1.000000 1.000000 0.950000
v 1.000000 0.950000 1.000000
v -1.000000 0.950000 1.000000
v 1.000000 0.850000 1.000000
v 1.000000 0.800000 0.950000
v -1.000000 0.800000 0.950000
v -1.000000 0.850000 1.000000
vn -1.0000 -0.0000 -0.0000
vn -0.0000 -0.0000 -1.0000
vn 1.0000 -0.0000 -0.0000
vn -0.0000 -0.0000 1.0000
vn -0.0000 -1.0000 -0.0000
vn -0.0000 1.0000 -0.0000
vn -0.0000 -0.3827 0.9239
vn -0.0000 0.3827 0.9239
vn -0.0000 0.7071 0.7071
vn -0.0000 -0.9239 0.3827
vt 0.935202 0.049884
vt 0.935202 0.116593
vt 0.971048 0.116593
vt 0.971048 0.049884
vt 0.935202 0.018634
vt 0.971048 0.018634
vt 0.849518 0.116593
vt 0.849518 0.133271
vt 0.849518 0.164521
vt 0.821988 0.164521
vt 0.821988 0.116593
vt 0.821988 0.133271
vt 0.821988 0.120763
vt 0.849518 0.120763
vt 0.849518 0.129102
vt 0.821988 0.129102
vt 0.849518 0.148896
vt 0.821988 0.148896
vt 0.821988 0.144727
vt 0.849518 0.144727
vt 0.849518 0.105138
vt 0.821988 0.105138
vt 0.821988 0.100968
vt 0.849518 0.100968
vt 0.821988 0.085343
vt 0.849518 0.085343
s 1
usemtl restaurant.001
f 1/1/1 2/2/1 4/2/1 3/1/1
f 3/1/2 4/2/2 8/3/2 7/4/2
f 7/4/3 8/3/3 6/3/3 5/4/3
f 5/4/4 6/3/4 2/2/4 1/1/4
f 3/5/5 7/6/5 5/6/5 1/5/5
f 6/7/3 8/7/3 11/8/3 12/8/3
f 11/9/6 10/10/6 9/10/6 12/9/6
f 4/11/1 2/11/1 9/12/1 10/12/1
f 8/7/2 4/11/2 10/12/2 11/8/2
f 18/13/7 15/14/7 13/15/8 14/16/8
f 12/17/9 9/18/9 14/19/8 13/20/8
f 6/7/3 12/8/3 16/7/3
f 15/21/7 18/22/7 17/23/10 16/24/10
f 2/25/5 6/26/5 16/26/10 17/25/10
f 17/11/1 18/13/1 14/16/1 9/12/1
f 12/8/3 13/15/3 15/14/3 16/7/3
f 2/11/1 17/11/1 9/12/1
