# Blender 4.5.3 LTS
# www.blender.org
mtllib SYONHALFCABINET.mtl
o kitchencabinet_half_Cube.222
v -0.876145 3.123855 0.800000
v -1.000000 3.000000 -0.000000
v 0.876145 3.123855 0.800000
v 1.000000 3.000000 -0.000000
v 0.917963 1.946757 0.910000
v 0.888302 1.973595 0.950000
v 0.354407 2.456663 0.950000
v 0.324746 2.483501 0.910000
v 0.917963 1.946757 0.750000
v 0.324746 2.483501 0.750000
v 1.468125 2.554804 0.910000
v 1.465301 2.611303 0.910000
v 1.438464 2.581642 0.950000
v 0.874908 3.091548 0.910000
v 0.904569 3.064711 0.950000
v 0.931406 3.094371 0.910000
v 1.465301 2.611303 0.750000
v 1.468125 2.554804 0.750000
v 0.874908 3.091548 0.750000
v 0.931406 3.094371 0.750000
v -0.860000 3.100000 0.910000
v -0.860000 3.140000 0.950000
v -0.900000 3.140000 0.910000
v -0.860000 3.860000 0.950000
v -0.860000 3.900000 0.910000
v -0.900000 3.860000 0.910000
v -0.860000 3.100000 0.750000
v -0.900000 3.140000 0.750000
v -0.900000 3.860000 0.750000
v -0.860000 3.900000 0.750000
v -0.040000 3.100000 0.910000
v -0.040000 3.140000 0.950000
v -0.040000 3.900000 0.910000
v -0.040000 3.860000 0.950000
v -0.040000 3.100000 0.750000
v -0.040000 3.900000 0.750000
v -0.150000 3.350000 1.041903
v -0.203977 3.403978 0.986796
v -0.226335 3.350001 0.986796
v -0.203977 3.296024 0.986796
v -0.150000 3.273666 0.986796
v -0.096023 3.296024 0.986796
v -0.073664 3.350001 0.986796
v -0.096023 3.403978 0.986796
v -0.150000 3.426336 0.986796
v -0.191759 3.391758 1.024086
v -0.191759 3.391758 0.949506
v -0.209056 3.350000 1.024086
v -0.209056 3.350000 0.949506
v -0.191759 3.308241 1.024086
v -0.191759 3.308241 0.949506
v -0.150000 3.290944 1.024086
v -0.150000 3.290944 0.949506
v -0.108242 3.308241 1.024086
v -0.108242 3.308241 0.949506
v -0.090944 3.350000 1.024086
v -0.090944 3.350000 0.949506
v -0.108242 3.391758 1.024086
v -0.108242 3.391758 0.949506
v -0.150000 3.409055 1.024086
v -0.150000 3.409055 0.949506
v 0.806385 2.196057 1.041903
v 0.730144 2.192247 0.986796
v 0.755169 2.139453 0.986796
v 0.810194 2.119817 0.986796
v 0.862988 2.144842 0.986796
v 0.882624 2.199868 0.986796
v 0.857600 2.252662 0.986796
v 0.802574 2.272297 0.986796
v 0.749780 2.247273 0.986796
v 0.747403 2.193108 1.024086
v 0.747403 2.193108 0.949506
v 0.766763 2.152265 1.024086
v 0.766763 2.152265 0.949506
v 0.809333 2.137074 1.024086
v 0.809333 2.137074 0.949506
v 0.850176 2.156434 1.024086
v 0.850176 2.156434 0.949506
v 0.865367 2.199004 1.024086
v 0.865367 2.199004 0.949506
v 0.846007 2.239847 1.024086
v 0.846007 2.239847 0.949506
v 0.803437 2.255038 1.024086
v 0.803437 2.255038 0.949506
v 0.762594 2.235678 1.024086
v 0.762594 2.235678 0.949506
v -0.950000 4.000000 0.750000
v -0.876145 3.826145 0.800000
v -0.950000 4.000000 0.050000
v -1.000000 3.950000 -0.000000
v 0.950000 4.000000 0.750000
v 0.876145 3.826145 0.800000
v 0.950000 4.000000 0.050000
v 1.000000 3.950000 -0.000000
v 1.000000 3.000000 0.800000
v 1.000000 3.950000 0.800000
v -1.000000 3.000000 0.800000
v -1.000000 3.950000 0.800000
v 0.876145 3.123855 0.011719
v 0.876145 3.826145 0.011719
v -0.876145 3.123855 0.011719
v -0.876145 3.826145 0.011719
vn -0.0000 1.0000 -0.0000
vn 1.0000 -0.0000 -0.0000
vn -1.0000 -0.0000 -0.0000
vn -0.0000 -1.0000 -0.0000
vn 0.4825 0.0241 0.8756
vn -0.0241 0.4825 0.8756
vn -0.3828 -0.5410 0.7489
vn 0.0721 -0.4650 0.8823
vn -0.3325 0.7016 -0.6303
vn -0.9964 -0.0498 -0.0689
vn -0.8532 0.3722 0.3655
vn -0.4201 0.8407 0.3416
vn 0.7016 0.3325 -0.6303
vn 0.2609 0.7312 -0.6303
vn 0.6709 0.7415 -0.0000
vn 0.7312 -0.2609 -0.6303
vn -0.4222 -0.5693 -0.7054
vn 0.8784 -0.3342 0.3416
vn 0.8506 0.2537 0.4606
vn 0.1676 0.8717 0.4606
vn -0.0903 -0.8056 0.5855
vn 0.6580 0.0792 0.7489
vn 0.2965 0.3655 0.8823
vn -0.3416 0.3416 0.8756
vn -0.3416 -0.3416 0.8756
vn 0.5774 0.5774 -0.5774
vn -0.2971 0.7173 -0.6303
vn -0.3416 0.8756 0.3416
vn 0.6580 0.7489 -0.0792
vn -0.8756 -0.3416 0.3416
vn -0.8756 0.3416 0.3416
vn -0.7173 0.2971 -0.6303
vn -0.7173 -0.2971 -0.6303
vn -0.3416 -0.8756 0.3416
vn 0.6580 -0.7489 -0.0792
vn 0.5774 -0.5774 -0.5774
vn -0.2971 -0.7173 -0.6303
vn -0.0000 -0.0000 -1.0000
vn 0.2042 0.2042 0.9574
vn -0.0000 0.2888 0.9574
vn -0.0000 -0.0000 1.0000
vn 0.6416 0.6416 -0.4205
vn 0.9073 -0.0000 -0.4204
vn -0.9073 -0.0000 -0.4204
vn -0.6416 0.6416 -0.4205
vn -0.0000 -0.9073 -0.4204
vn -0.6416 -0.6416 -0.4204
vn 0.9073 -0.0000 0.4204
vn 0.6416 -0.6416 0.4204
vn -0.0000 0.9073 0.4205
vn 0.6416 0.6416 0.4205
vn -0.6416 -0.6416 0.4204
vn -0.9073 -0.0000 0.4204
vn -0.6416 0.6416 0.4205
vn -0.0000 -0.9073 0.4204
vn -0.0000 0.9073 -0.4205
vn -0.2042 0.2042 0.9574
vn 0.6416 -0.6416 -0.4204
vn 0.2042 -0.2042 0.9574
vn 0.2888 -0.0000 0.9574
vn -0.2042 -0.2042 0.9574
vn -0.0000 -0.2888 0.9574
vn -0.2888 -0.0000 0.9574
vn -0.0144 0.2885 0.9574
vn -0.2142 0.1938 0.9574
vn -0.0453 0.9062 -0.4205
vn 0.6087 0.6728 -0.4205
vn -0.6087 -0.6728 -0.4204
vn -0.6088 -0.6728 -0.4204
vn -0.9062 -0.0453 -0.4205
vn 0.6728 -0.6088 -0.4204
vn 0.0453 -0.9062 -0.4204
vn 0.6087 0.6728 0.4205
vn 0.9062 0.0453 0.4204
vn -0.6728 0.6087 0.4205
vn -0.0453 0.9062 0.4205
vn 0.0453 -0.9062 0.4204
vn -0.6087 -0.6728 0.4204
vn -0.6088 -0.6728 0.4204
vn -0.9062 -0.0453 0.4205
vn 0.6728 -0.6088 0.4204
vn -0.6728 0.6087 -0.4205
vn -0.2885 -0.0144 0.9574
vn 0.9062 0.0453 -0.4204
vn 0.2885 0.0144 0.9574
vn 0.1938 0.2142 0.9574
vn 0.0144 -0.2885 0.9574
vn 0.2142 -0.1938 0.9574
vn -0.1938 -0.2142 0.9574
vn -0.7071 0.7071 -0.0000
vn -0.0000 0.7071 -0.7071
vn 0.7071 0.7071 -0.0000
vn -0.0000 0.7071 0.7071
vn -0.7071 -0.7071 -0.0000
vn 0.7071 -0.7071 -0.0000
vt 0.936099 0.147843
vt 0.970151 0.147843
vt 0.971048 0.049884
vt 0.971048 0.113258
vt 0.935202 0.049884
vt 0.935202 0.113258
vt 0.935202 0.034259
vt 0.971048 0.034259
vt 0.667878 0.092808
vt 0.667878 0.136169
vt 0.657765 0.136169
vt 0.657765 0.092808
vt 0.667878 0.155130
vt 0.657765 0.155130
vt 0.668371 0.077183
vt 0.668371 0.120544
vt 0.668371 0.045933
vt 0.667878 0.042598
vt 0.657765 0.042598
vt 0.667878 0.058223
vt 0.668371 0.061558
vt 0.667878 0.061558
vt 0.667878 0.170755
vt 0.667878 0.167419
vt 0.668371 0.167419
vt 0.657765 0.061558
vt 0.657765 0.167419
vt 0.657765 0.058223
vt 0.668371 0.151794
vt 0.668371 0.092808
vt 0.668371 0.136169
vt 0.657765 0.170755
vt 0.656778 0.092808
vt 0.656778 0.136169
vt 0.646665 0.136169
vt 0.646665 0.092808
vt 0.656778 0.155130
vt 0.646665 0.155130
vt 0.646171 0.077183
vt 0.646171 0.120544
vt 0.646665 0.058223
vt 0.646665 0.061558
vt 0.646171 0.061558
vt 0.646665 0.167419
vt 0.646665 0.170755
vt 0.646171 0.167419
vt 0.656778 0.061558
vt 0.656778 0.058223
vt 0.656778 0.042598
vt 0.656778 0.167419
vt 0.646665 0.042598
vt 0.646171 0.045933
vt 0.646171 0.136169
vt 0.646171 0.092808
vt 0.646171 0.151794
vt 0.656778 0.170755
vt 0.935202 0.065509
vt 0.935202 0.128883
vt 0.971048 0.128883
vt 0.971048 0.065509
vt 0.798466 0.130479
vt 0.796875 0.131921
vt 0.796875 0.111372
vt 0.798466 0.099229
vt 0.798932 0.100248
vt 0.799784 0.080122
vt 0.799125 0.080122
vt 0.794625 0.080122
vt 0.793966 0.080122
vt 0.794818 0.100248
vt 0.795284 0.099229
vt 0.796875 0.059572
vt 0.796875 0.058131
vt 0.794818 0.059996
vt 0.795284 0.061015
vt 0.799784 0.095747
vt 0.799125 0.111372
vt 0.798466 0.092265
vt 0.798932 0.075621
vt 0.796875 0.117737
vt 0.798932 0.115873
vt 0.794818 0.075621
vt 0.795284 0.092265
vt 0.794625 0.111372
vt 0.793966 0.095747
vt 0.794818 0.115873
vt 0.795284 0.130479
vt 0.796875 0.073756
vt 0.796875 0.090822
vt 0.796875 0.100671
vt 0.796875 0.102112
vt 0.798466 0.061015
vt 0.798932 0.059996
vt 0.935202 0.132218
vt 0.971048 0.144508
vt 0.935202 0.144508
vt 0.971048 0.132218
vt 0.937422 0.073771
vt 0.968828 0.073771
vt 0.968828 0.120621
vt 0.937422 0.120621
s 1
usemtl restaurant
f 87/1/1 91/2/1 93/2/1 89/1/1
f 4/3/2 94/4/2 96/4/2 95/3/2
f 97/5/3 98/6/3 90/6/3 2/5/3
f 2/7/4 4/8/4 95/8/4 97/7/4
f 13/9/5 15/10/6 7/11/7 6/12/8
f 19/13/9 10/14/10 8/14/11 14/13/12
f 17/15/13 20/16/14 16/16/15 12/15/15
f 10/14/10 19/13/9 20/16/14 17/17/13 18/18/16 9/19/17
f 11/20/18 12/21/19 13/22/5
f 14/23/12 15/24/6 16/25/20
f 6/26/8 7/27/7 8/14/11 10/14/10 9/19/17 5/28/21
f 11/18/18 18/18/16 17/17/13 12/17/19
f 19/13/9 14/13/12 16/29/20 20/29/14
f 15/10/6 13/9/5 12/30/19 16/31/20
f 5/28/21 11/20/18 13/22/5 6/26/8
f 14/23/12 8/32/11 7/27/7 15/24/6
f 9/19/17 18/18/16 11/18/18 5/19/21
f 32/33/22 34/34/23 24/35/24 22/36/25
f 36/37/26 30/38/27 25/38/28 33/37/29
f 23/39/30 26/40/31 29/40/32 28/39/33
f 21/41/34 22/42/25 23/43/30
f 24/44/24 25/45/28 26/46/31
f 32/47/22 31/48/35 35/49/36 36/37/26 33/37/29 34/50/23
f 27/51/37 21/51/34 23/52/30 28/52/33
f 22/36/25 24/35/24 26/53/31 23/54/30
f 25/38/28 30/38/27 29/55/32 26/55/31
f 30/38/27 36/37/26 35/49/36 27/51/37 28/39/33 29/55/32
f 21/41/34 31/48/35 32/47/22 22/42/25
f 33/56/29 25/45/28 24/44/24 34/50/23
f 27/51/37 35/49/36 31/49/35 21/51/34
f 2/57/38 90/58/38 94/59/38 4/60/38
f 58/61/39 60/62/40 37/63/41
f 59/64/42 44/65/42 43/66/43 57/67/43
f 49/68/44 39/69/44 38/70/45 47/71/45
f 53/72/46 41/73/46 40/74/47 51/75/47
f 43/76/48 56/77/48 54/78/49 42/79/49
f 45/80/50 60/62/50 58/61/51 44/81/51
f 40/82/52 50/83/52 48/84/53 39/85/53
f 38/86/54 46/87/54 60/62/50 45/80/50
f 39/85/53 48/84/53 46/87/54 38/86/54
f 41/88/55 52/89/55 50/83/52 40/82/52
f 61/90/56 45/91/56 44/65/42 59/64/42
f 60/62/40 46/87/57 37/63/41
f 55/92/58 42/93/58 41/73/46 53/72/46
f 42/79/49 54/78/49 52/89/55 41/88/55
f 47/71/45 38/70/45 45/91/56 61/90/56
f 54/78/59 56/77/60 37/63/41
f 44/81/51 58/61/51 56/77/48 43/76/48
f 51/75/47 40/74/47 39/69/44 49/68/44
f 57/67/43 43/66/43 42/93/58 55/92/58
f 50/83/61 52/89/62 37/63/41
f 48/84/63 50/83/61 37/63/41
f 52/89/62 54/78/59 37/63/41
f 46/87/57 48/84/63 37/63/41
f 56/77/60 58/61/39 37/63/41
f 83/61/64 85/62/65 62/63/41
f 84/64/66 69/65/66 68/66/67 82/67/67
f 74/68/68 64/69/69 63/70/70 72/71/70
f 78/72/71 66/73/71 65/74/72 76/75/72
f 68/76/73 81/77/73 79/78/74 67/79/74
f 70/80/75 85/62/75 83/61/76 69/81/76
f 65/82/77 75/83/77 73/84/78 64/85/79
f 63/86/80 71/87/80 85/62/75 70/80/75
f 64/85/79 73/84/78 71/87/80 63/86/80
f 66/88/81 77/89/81 75/83/77 65/82/77
f 86/90/82 70/91/82 69/65/66 84/64/66
f 85/62/65 71/87/83 62/63/41
f 80/92/84 67/93/84 66/73/71 78/72/71
f 67/79/74 79/78/74 77/89/81 66/88/81
f 72/71/70 63/70/70 70/91/82 86/90/82
f 79/78/85 81/77/86 62/63/41
f 69/81/76 83/61/76 81/77/73 68/76/73
f 76/75/72 65/74/72 64/69/69 74/68/68
f 82/67/67 68/66/67 67/93/84 80/92/84
f 75/83/87 77/89/88 62/63/41
f 73/84/89 75/83/87 62/63/41
f 77/89/88 79/78/85 62/63/41
f 71/87/83 73/84/89 62/63/41
f 81/77/86 83/61/64 62/63/41
f 87/94/90 89/94/90 90/58/90 98/58/90
f 89/1/91 93/2/91 94/95/91 90/96/91
f 93/97/92 91/97/92 96/59/92 94/59/92
f 91/2/93 87/1/93 98/96/93 96/95/93
f 1/98/92 3/99/90 99/99/90 101/98/92
f 92/100/41 3/99/41 95/60/41 96/59/41
f 1/98/41 88/101/41 98/58/41 97/57/41
f 3/99/41 1/98/41 97/57/41 95/60/41
f 88/101/41 92/100/41 96/59/41 98/58/41
f 99/99/41 100/100/41 102/101/41 101/98/41
f 3/99/90 92/100/94 100/100/94 99/99/90
f 92/100/94 88/101/95 102/101/95 100/100/94
f 88/101/95 1/98/92 101/98/92 102/101/95
