# Blender 4.5.3 LTS
# www.blender.org
mtllib SYONSCABINET.mtl
o kitchencounter_straight_B_Cube.897
v -0.851693 0.148307 0.800000
v -0.851693 0.651693 0.800000
v -1.000000 -0.000000 -1.000000
v -1.000000 0.800000 -1.000000
v 0.851693 0.148307 0.800000
v 0.851693 0.651693 0.800000
v 1.000000 -0.000000 -1.000000
v 1.000000 0.800000 -1.000000
v -1.000000 1.000000 0.950000
v -1.000000 1.000000 -1.000000
v 1.000000 1.000000 -1.000000
v 1.000000 1.000000 0.950000
v 1.000000 0.950000 1.000000
v -1.000000 0.950000 1.000000
v 1.000000 0.850000 1.000000
v 1.000000 0.800000 0.950000
v -1.000000 0.800000 0.950000
v -1.000000 0.850000 1.000000
v 0.040095 0.100003 0.959838
v 0.040089 0.140007 0.999835
v 0.039935 0.660007 0.999794
v 0.039917 0.700003 0.959790
v 0.040071 0.099990 0.799838
v 0.039893 0.699990 0.799790
v 0.860000 0.100000 0.959815
v 0.900000 0.140000 0.959815
v 0.860000 0.140000 0.999815
v 0.860000 0.700000 0.959815
v 0.860000 0.660000 0.999815
v 0.900000 0.660000 0.959815
v 0.900000 0.140000 0.799814
v 0.860000 0.100000 0.799814
v 0.860000 0.700000 0.799814
v 0.900000 0.660000 0.799814
v 0.150000 0.550000 1.091717
v 0.096023 0.603978 1.036610
v 0.073665 0.550001 1.036610
v 0.096023 0.496024 1.036610
v 0.150000 0.473666 1.036610
v 0.203977 0.496024 1.036610
v 0.226336 0.550001 1.036610
v 0.203977 0.603978 1.036610
v 0.150000 0.626336 1.036610
v 0.108241 0.591758 1.073900
v 0.108241 0.591758 0.999321
v 0.090944 0.550000 1.073900
v 0.090944 0.550000 0.999321
v 0.108241 0.508241 1.073900
v 0.108241 0.508241 0.999321
v 0.150000 0.490944 1.073900
v 0.150000 0.490944 0.999321
v 0.191758 0.508241 1.073900
v 0.191758 0.508241 0.999321
v 0.209055 0.550000 1.073900
v 0.209055 0.550000 0.999321
v 0.191758 0.591758 1.073900
v 0.191758 0.591758 0.999321
v 0.150000 0.609055 1.073900
v 0.150000 0.609055 0.999321
v -1.010118 0.100000 0.880054
v -1.048266 0.140000 0.892084
v -1.022148 0.140000 0.841906
v -1.048266 0.660000 0.892084
v -1.010118 0.700000 0.880054
v -1.022148 0.660000 0.841906
v -0.857525 0.100000 0.831934
v -0.869555 0.140000 0.793786
v -0.869555 0.660000 0.793786
v -0.857525 0.700000 0.831934
v -0.763501 0.100000 1.662091
v -0.801650 0.140000 1.674121
v -0.763501 0.700000 1.662091
v -0.801649 0.660000 1.674121
v -0.610909 0.100000 1.613971
v -0.610909 0.700000 1.613971
v -0.922380 0.550000 1.596854
v -0.886058 0.603978 1.528802
v -0.892782 0.550001 1.507479
v -0.886058 0.496024 1.528802
v -0.869825 0.473666 1.580280
v -0.853591 0.496024 1.631758
v -0.846866 0.550001 1.653082
v -0.853591 0.603978 1.631758
v -0.869825 0.626336 1.580280
v -0.917947 0.591758 1.551669
v -0.846820 0.591758 1.529240
v -0.923149 0.550000 1.535173
v -0.852022 0.550000 1.512743
v -0.917947 0.508241 1.551669
v -0.846820 0.508241 1.529240
v -0.905388 0.490944 1.591495
v -0.834261 0.490944 1.569065
v -0.892829 0.508241 1.631320
v -0.821702 0.508241 1.608889
v -0.887627 0.550000 1.647817
v -0.816500 0.550000 1.625387
v -0.892829 0.591758 1.631320
v -0.821702 0.591758 1.608889
v -0.905388 0.609055 1.591495
v -0.834261 0.609055 1.569065
v -1.000000 0.000000 0.800000
v -1.000000 0.800000 0.800000
v 1.000000 0.000000 0.800000
v 1.000000 0.800000 0.800000
v -0.851693 0.148307 -0.981646
v -0.851693 0.651693 -0.981646
v 0.851693 0.148307 -0.981646
v 0.851693 0.651693 -0.981646
vn -1.0000 -0.0000 -0.0000
vn -0.0000 -0.0000 -1.0000
vn 1.0000 -0.0000 -0.0000
vn 0.7071 0.7071 -0.0000
vn -0.7071 0.7071 -0.0000
vn -0.0000 -1.0000 -0.0000
vn -0.0000 1.0000 -0.0000
vn -0.0000 -0.3827 0.9239
vn -0.0000 0.3827 0.9239
vn -0.0000 0.7071 0.7071
vn -0.0000 -0.9239 0.3827
vn 0.3416 -0.3416 0.8756
vn 0.3416 0.3416 0.8756
vn -0.6579 -0.0792 0.7489
vn -0.2964 -0.3656 0.8823
vn 0.2971 0.7173 -0.6303
vn -0.7055 0.7053 -0.0689
vn -0.2966 0.8823 0.3656
vn 0.3416 0.8756 0.3416
vn 0.7173 -0.2971 -0.6303
vn 0.7173 0.2971 -0.6303
vn 0.3416 -0.8756 0.3416
vn 0.7588 -0.4606 0.4606
vn 0.7588 0.4606 0.4606
vn 0.2971 -0.7173 -0.6302
vn -0.2964 -0.8824 0.3655
vn -0.0689 -0.7055 -0.7053
vn 0.2042 0.2042 0.9574
vn -0.0000 0.2888 0.9574
vn -0.0000 -0.0000 1.0000
vn 0.6416 0.6416 -0.4205
vn 0.9073 -0.0000 -0.4205
vn -0.9073 -0.0000 -0.4204
vn -0.6416 0.6416 -0.4205
vn -0.0000 -0.9073 -0.4204
vn -0.6416 -0.6416 -0.4204
vn 0.9073 -0.0000 0.4205
vn 0.6416 -0.6416 0.4204
vn -0.0000 0.9073 0.4205
vn 0.6416 0.6416 0.4205
vn -0.6416 -0.6416 0.4204
vn -0.9073 -0.0000 0.4204
vn -0.6416 0.6416 0.4204
vn -0.0000 -0.9073 0.4204
vn -0.0000 0.9073 -0.4205
vn -0.2042 0.2042 0.9574
vn 0.6416 -0.6416 -0.4204
vn 0.2042 -0.2042 0.9574
vn 0.2888 -0.0000 0.9574
vn -0.2042 -0.2042 0.9574
vn -0.0000 -0.2888 0.9574
vn -0.2888 -0.0000 0.9574
vn -0.5163 0.0791 0.8528
vn -0.7523 0.3655 0.5481
vn -0.9378 0.3416 -0.0624
vn -0.9378 -0.3416 -0.0624
vn 0.7243 0.5773 0.3770
vn 0.5117 0.7173 -0.4729
vn -0.5891 -0.3416 -0.7323
vn -0.5891 0.3416 -0.7323
vn 0.3854 0.2971 -0.8736
vn 0.3854 -0.2971 -0.8736
vn -0.5778 -0.7588 -0.3007
vn -0.5778 0.7588 -0.3007
vn 0.5117 -0.7173 -0.4729
vn -0.3605 -0.9238 0.1290
vn -0.1738 0.6714 0.7204
vn 0.2779 -0.7054 0.6520
vn -0.8516 0.2042 0.4827
vn -0.9131 0.2888 0.2879
vn -0.9537 -0.0000 0.3008
vn 0.5939 0.6416 0.4854
vn 0.6739 -0.0000 0.7389
vn 0.1281 -0.0000 -0.9918
vn 0.2080 0.6416 -0.7383
vn 0.4009 -0.9073 -0.1264
vn 0.2080 -0.6416 -0.7383
vn -0.1281 -0.0000 0.9918
vn -0.2080 -0.6416 0.7383
vn -0.4010 0.9073 0.1265
vn -0.2080 0.6416 0.7383
vn -0.5939 -0.6416 -0.4854
vn -0.6738 -0.0000 -0.7389
vn -0.5939 0.6416 -0.4854
vn -0.4009 -0.9073 0.1264
vn 0.4010 0.9073 -0.1265
vn -0.9745 0.2042 0.0931
vn 0.5939 -0.6416 0.4854
vn -0.8516 -0.2042 0.4827
vn -0.8262 -0.0000 0.5634
vn -0.9745 -0.2042 0.0931
vn -0.9131 -0.2888 0.2879
vn -0.9999 -0.0000 0.0125
vn 0.7071 -0.7071 -0.0000
vn -0.7071 -0.7071 -0.0000
vt 0.935202 0.049884
vt 0.935202 0.116593
vt 0.971048 0.116593
vt 0.971048 0.049884
vt 0.937860 0.062251
vt 0.968390 0.062251
vt 0.935202 0.018634
vt 0.971048 0.018634
vt 0.849518 0.116593
vt 0.849518 0.133271
vt 0.849518 0.164521
vt 0.821988 0.164521
vt 0.821988 0.116593
vt 0.821988 0.133271
vt 0.821988 0.120763
vt 0.849518 0.120763
vt 0.849518 0.129102
vt 0.821988 0.129102
vt 0.849518 0.148896
vt 0.821988 0.148896
vt 0.821988 0.144727
vt 0.849518 0.144727
vt 0.849518 0.105138
vt 0.821988 0.105138
vt 0.821988 0.100968
vt 0.849518 0.100968
vt 0.821988 0.085343
vt 0.849518 0.085343
vt 0.667878 0.092808
vt 0.667878 0.136169
vt 0.657765 0.136169
vt 0.657765 0.092808
vt 0.667878 0.155130
vt 0.657765 0.155130
vt 0.668371 0.077183
vt 0.668371 0.120544
vt 0.667878 0.058223
vt 0.668371 0.061558
vt 0.667878 0.061558
vt 0.667878 0.170755
vt 0.667878 0.167419
vt 0.668371 0.167419
vt 0.667878 0.042598
vt 0.668371 0.045933
vt 0.668371 0.151794
vt 0.668371 0.092808
vt 0.668371 0.136169
vt 0.657765 0.058223
vt 0.657765 0.061558
vt 0.657765 0.170755
vt 0.657765 0.167419
vt 0.657765 0.042598
vt 0.798466 0.130479
vt 0.796875 0.131921
vt 0.796875 0.111372
vt 0.798466 0.099229
vt 0.798932 0.100248
vt 0.799784 0.080122
vt 0.799125 0.080122
vt 0.794625 0.080122
vt 0.793966 0.080122
vt 0.794818 0.100248
vt 0.795284 0.099229
vt 0.796875 0.059572
vt 0.796875 0.058131
vt 0.794818 0.059996
vt 0.795284 0.061015
vt 0.799784 0.095747
vt 0.799125 0.111372
vt 0.798466 0.092265
vt 0.798932 0.075621
vt 0.796875 0.117737
vt 0.798932 0.115873
vt 0.794818 0.075621
vt 0.795284 0.092265
vt 0.794625 0.111372
vt 0.793966 0.095747
vt 0.794818 0.115873
vt 0.795284 0.130479
vt 0.796875 0.073756
vt 0.796875 0.090822
vt 0.796875 0.100671
vt 0.796875 0.102112
vt 0.798466 0.061015
vt 0.798932 0.059996
vt 0.656778 0.092808
vt 0.656778 0.136169
vt 0.646665 0.136169
vt 0.646665 0.092808
vt 0.656778 0.155130
vt 0.646665 0.155130
vt 0.646171 0.077183
vt 0.646171 0.120544
vt 0.646665 0.058223
vt 0.646665 0.061558
vt 0.646171 0.061558
vt 0.646665 0.167419
vt 0.646665 0.170755
vt 0.646171 0.167419
vt 0.646665 0.042598
vt 0.646171 0.045933
vt 0.646171 0.136169
vt 0.646171 0.092808
vt 0.646171 0.151794
vt 0.656778 0.058223
vt 0.656778 0.061558
vt 0.656778 0.170755
vt 0.656778 0.167419
vt 0.656778 0.042598
vt 0.937860 0.104226
vt 0.968390 0.104226
s 1
usemtl restaurant
f 101/1/1 102/2/1 4/2/1 3/1/1
f 3/1/2 4/2/2 8/3/2 7/4/2
f 7/4/3 8/3/3 104/3/3 103/4/3
f 1/5/4 5/6/5 107/6/5 105/5/4
f 3/7/6 7/8/6 103/8/6 101/7/6
f 104/9/3 8/9/3 11/10/3 12/10/3
f 11/11/7 10/12/7 9/12/7 12/11/7
f 4/13/1 102/13/1 9/14/1 10/14/1
f 8/9/2 4/13/2 10/14/2 11/10/2
f 18/15/8 15/16/8 13/17/9 14/18/9
f 102/13/1 17/13/1 9/14/1
f 12/19/10 9/20/10 14/21/9 13/22/9
f 15/23/8 18/24/8 17/25/11 16/26/11
f 102/27/6 104/28/6 16/28/11 17/27/11
f 17/13/1 18/15/1 14/18/1 9/14/1
f 16/9/3 104/9/3 12/10/3
f 27/29/12 29/30/13 21/31/14 20/32/15
f 33/33/16 24/34/17 22/34/18 28/33/19
f 31/35/20 34/36/21 30/36/3 26/35/3
f 25/37/22 26/38/23 27/39/12
f 28/40/19 29/41/13 30/42/24
f 25/43/22 32/43/25 31/44/20 26/44/23
f 33/33/16 28/33/19 30/45/24 34/45/21
f 29/30/13 27/29/12 26/46/23 30/47/24
f 19/48/26 25/37/22 27/39/12 20/49/15
f 28/40/19 22/50/18 21/51/14 29/41/13
f 23/52/27 32/43/25 25/43/22 19/52/26
f 15/16/3 16/9/3 12/10/3 13/17/3
f 56/53/28 58/54/29 35/55/30
f 57/56/31 42/57/31 41/58/32 55/59/32
f 47/60/33 37/61/33 36/62/34 45/63/34
f 51/64/35 39/65/35 38/66/36 49/67/36
f 41/68/37 54/69/37 52/70/38 40/71/38
f 43/72/39 58/54/39 56/53/40 42/73/40
f 38/74/41 48/75/41 46/76/42 37/77/42
f 36/78/43 44/79/43 58/54/39 43/72/39
f 37/77/42 46/76/42 44/79/43 36/78/43
f 39/80/44 50/81/44 48/75/41 38/74/41
f 59/82/45 43/83/45 42/57/31 57/56/31
f 58/54/29 44/79/46 35/55/30
f 53/84/47 40/85/47 39/65/35 51/64/35
f 40/71/38 52/70/38 50/81/44 39/80/44
f 45/63/34 36/62/34 43/83/45 59/82/45
f 52/70/48 54/69/49 35/55/30
f 42/73/40 56/53/40 54/69/37 41/68/37
f 49/67/36 38/66/36 37/61/33 47/60/33
f 55/59/32 41/58/32 40/85/47 53/84/47
f 48/75/50 50/81/51 35/55/30
f 46/76/52 48/75/50 35/55/30
f 50/81/51 52/70/48 35/55/30
f 44/79/46 46/76/52 35/55/30
f 54/69/49 56/53/28 35/55/30
f 20/49/15 21/51/14 22/34/18 24/34/17 23/52/27 19/48/26
f 71/86/53 73/87/54 63/88/55 61/89/56
f 75/90/57 69/91/58 64/91/7 72/90/7
f 62/92/59 65/93/60 68/93/61 67/92/62
f 60/94/63 61/95/56 62/96/59
f 63/97/55 64/98/64 65/99/60
f 66/100/65 60/100/63 62/101/59 67/101/62
f 61/89/56 63/88/55 65/102/60 62/103/59
f 64/91/64 69/91/58 68/104/61 65/104/60
f 60/94/63 70/105/66 71/106/53 61/95/56
f 72/107/67 64/98/64 63/97/55 73/108/54
f 66/100/65 74/109/68 70/109/66 60/100/6
f 97/53/69 99/54/70 76/55/71
f 98/56/72 83/57/72 82/58/73 96/59/73
f 88/60/74 78/61/74 77/62/75 86/63/75
f 92/64/76 80/65/76 79/66/77 90/67/77
f 82/68/78 95/69/78 93/70/79 81/71/79
f 84/72/80 99/54/80 97/53/81 83/73/81
f 79/74/82 89/75/82 87/76/83 78/77/83
f 77/78/84 85/79/84 99/54/80 84/72/80
f 78/77/83 87/76/83 85/79/84 77/78/84
f 80/80/85 91/81/85 89/75/82 79/74/82
f 100/82/86 84/83/86 83/57/72 98/56/72
f 99/54/70 85/79/87 76/55/71
f 94/84/88 81/85/88 80/65/76 92/64/76
f 81/71/79 93/70/79 91/81/85 80/80/85
f 86/63/75 77/62/75 84/83/86 100/82/86
f 93/70/89 95/69/90 76/55/71
f 83/73/81 97/53/81 95/69/78 82/68/78
f 90/67/77 79/66/77 78/61/74 88/60/74
f 96/59/73 82/58/73 81/85/88 94/84/88
f 89/75/91 91/81/92 76/55/71
f 87/76/93 89/75/91 76/55/71
f 91/81/92 93/70/89 76/55/71
f 85/79/87 87/76/93 76/55/71
f 95/69/90 97/53/69 76/55/71
f 71/106/53 70/105/66 74/109/68 75/90/57 72/90/67 73/108/54
f 1/5/30 2/110/30 102/2/30 101/1/30
f 6/111/30 5/6/30 103/4/30 104/3/30
f 5/6/30 1/5/30 101/1/30 103/4/30
f 2/110/30 6/111/30 104/3/30 102/2/30
f 107/6/30 108/111/30 106/110/30 105/5/30
f 2/110/94 1/5/4 105/5/4 106/110/94
f 6/111/95 2/110/94 106/110/94 108/111/95
f 5/6/5 6/111/95 108/111/95 107/6/5
f 69/91/58 75/90/57 74/109/68 66/100/65 67/92/62 68/104/61
f 24/34/17 33/33/16 34/36/21 31/44/20 32/43/25 23/52/27
