# Blender 4.5.3 LTS
# www.blender.org
mtllib SYONSink.mtl
o drawer.002
v -0.860000 0.435605 1.398643
v -0.860000 0.475605 1.438643
v -0.900000 0.475605 1.398643
v -0.860000 0.695605 1.438643
v -0.900000 0.695605 1.398643
v -0.860000 0.435605 1.238643
v -0.900000 0.475605 1.238643
v -0.785902 0.695605 1.124545
v 0.860000 0.435605 1.398643
v 0.900000 0.475605 1.398643
v 0.860000 0.475605 1.438643
v 0.860000 0.695605 1.438643
v 0.900000 0.695605 1.398643
v 0.900000 0.475605 1.238643
v 0.860000 0.435605 1.238643
v 0.785902 0.695605 1.124545
v -0.000002 0.585605 1.530546
v -0.053979 0.639583 1.475440
v -0.076337 0.585606 1.475440
v -0.053979 0.531629 1.475440
v -0.000002 0.509271 1.475440
v 0.053976 0.531629 1.475440
v 0.076334 0.585606 1.475440
v 0.053976 0.639583 1.475440
v -0.000002 0.661941 1.475440
v -0.041761 0.627363 1.512729
v -0.041761 0.627363 1.438149
v -0.059058 0.585605 1.512729
v -0.059058 0.585605 1.438149
v -0.041761 0.543846 1.512729
v -0.041761 0.543846 1.438149
v -0.000002 0.526549 1.512729
v -0.000002 0.526549 1.438149
v 0.041757 0.543846 1.512729
v 0.041757 0.543846 1.438149
v 0.059054 0.585605 1.512729
v 0.059054 0.585605 1.438149
v 0.041757 0.627363 1.512729
v 0.041757 0.627363 1.438149
v -0.000002 0.644660 1.512729
v -0.000002 0.644660 1.438149
v -0.860000 0.435605 -0.451598
v -0.900000 0.475605 -0.451598
v -0.785902 0.695605 -0.337500
v 0.900000 0.475605 -0.451598
v 0.860000 0.435605 -0.451598
v 0.785902 0.695605 -0.337500
v -0.900000 0.695605 1.238643
v 0.900000 0.695605 1.238643
v -0.900000 0.695605 -0.451598
v 0.900000 0.695605 -0.451598
v -0.785902 0.437829 1.124545
v 0.785902 0.437829 1.124545
v -0.785902 0.437829 -0.337500
v 0.785902 0.437829 -0.337500
vn -0.0000 -0.0000 1.0000
vn -0.2946 -0.0000 0.9556
vn -1.0000 -0.0000 -0.0000
vn -0.9556 -0.0000 -0.2946
vn -0.9330 -0.0000 -0.3599
vn 0.9239 -0.0000 -0.3827
vn 0.7071 -0.0000 0.7071
vn 1.0000 -0.0000 -0.0000
vn -0.5774 -0.5774 0.5774
vn 0.5774 -0.5774 0.5774
vn 0.2083 0.9556 -0.2083
vn 0.5044 0.8621 0.0486
vn -0.0000 0.7071 -0.7071
vn -0.0000 0.9330 0.3599
vn 0.2083 0.9556 0.2083
vn -0.0486 0.8621 0.5044
vn -0.6533 -0.6533 0.3827
vn -0.7071 -0.7071 -0.0000
vn -0.7071 -0.0000 0.7071
vn -0.4605 0.4607 0.7588
vn -0.6757 -0.2946 0.6757
vn 0.7071 -0.7071 -0.0000
vn 0.6533 -0.6533 0.3827
vn 0.6757 -0.2946 0.6757
vn 0.7588 0.4607 0.4605
vn -0.0000 -0.7071 0.7071
vn -0.0000 -0.9239 -0.3827
vn -0.0000 -1.0000 -0.0000
vn 0.2042 0.2042 0.9574
vn -0.0000 0.2888 0.9574
vn 0.8493 0.3518 -0.3936
vn -0.8493 0.3518 -0.3936
vn -0.3518 -0.8493 -0.3935
vn 0.8493 -0.3518 0.3936
vn 0.3518 0.8493 0.3936
vn -0.8493 -0.3518 0.3935
vn -0.3518 0.8493 0.3936
vn -0.8493 0.3518 0.3936
vn -0.3518 -0.8493 0.3935
vn 0.3518 0.8493 -0.3936
vn -0.2042 0.2042 0.9574
vn 0.3518 -0.8493 -0.3935
vn 0.3518 -0.8493 0.3935
vn -0.3518 0.8493 -0.3936
vn 0.2042 -0.2042 0.9574
vn 0.2888 -0.0000 0.9574
vn 0.8493 0.3518 0.3936
vn -0.8493 -0.3518 -0.3935
vn 0.8493 -0.3518 -0.3936
vn -0.2042 -0.2042 0.9574
vn -0.0000 -0.2888 0.9574
vn -0.2888 -0.0000 0.9574
vn 0.3827 -0.9239 -0.0000
vn -0.7071 -0.0000 -0.7071
vn -0.6897 0.2431 0.6820
vn 0.0413 0.7065 -0.7066
vn 0.9239 0.3827 -0.0000
vn 0.7072 -0.0000 0.7070
vn -0.9330 -0.3599 -0.0000
vn -0.0000 -0.0000 -1.0000
vn 0.3599 -0.0000 -0.9330
vn -0.0000 -0.7070 -0.7072
vn -0.2706 -0.2706 -0.9239
vn -0.2706 0.2706 -0.9239
vn -0.7071 0.7071 -0.0000
vn -0.0000 0.9330 -0.3599
vn 0.3599 0.9330 -0.0000
vn -0.0000 0.7071 0.7071
vn -0.7070 0.7072 -0.0000
vn -0.0000 -0.7071 -0.7071
vn -0.7065 0.7066 0.0413
vn 0.5968 0.4014 -0.6948
vn 0.9330 -0.0000 0.3599
vn 0.9330 -0.3599 -0.0000
vn 0.6948 0.5968 -0.4014
vn 0.6948 0.4014 0.5968
vn -0.0000 -0.3599 0.9330
vn 0.4014 0.5968 0.6948
vn -0.2431 0.6820 0.6897
vn -0.7066 -0.0413 -0.7065
vn -0.6820 0.6897 0.2431
vn 0.5968 0.6948 0.4014
vn 0.4014 0.6948 -0.5968
vt 0.667878 0.092808
vt 0.667878 0.111153
vt 0.646665 0.111153
vt 0.646665 0.092808
vt 0.646171 0.077183
vt 0.646171 0.095528
vt 0.668371 0.077183
vt 0.668371 0.095528
vt 0.646665 0.058223
vt 0.646665 0.061558
vt 0.646171 0.061558
vt 0.667878 0.058223
vt 0.668371 0.061558
vt 0.667878 0.061558
vt 0.668371 0.111153
vt 0.646665 0.042598
vt 0.646171 0.045933
vt 0.646171 0.111153
vt 0.646171 0.092808
vt 0.667878 0.042598
vt 0.668371 0.045933
vt 0.668371 0.092808
vt 0.798466 0.130479
vt 0.796875 0.131921
vt 0.796875 0.111372
vt 0.798466 0.099229
vt 0.798932 0.100248
vt 0.799784 0.080122
vt 0.799125 0.080122
vt 0.794625 0.080122
vt 0.793966 0.080122
vt 0.794818 0.100248
vt 0.795284 0.099229
vt 0.796875 0.059572
vt 0.796875 0.058131
vt 0.794818 0.059996
vt 0.795284 0.061015
vt 0.799784 0.095747
vt 0.799125 0.111372
vt 0.798466 0.092265
vt 0.798932 0.075621
vt 0.796875 0.117737
vt 0.798932 0.115873
vt 0.794818 0.075621
vt 0.795284 0.092265
vt 0.794625 0.111372
vt 0.793966 0.095747
vt 0.794818 0.115873
vt 0.795284 0.130479
vt 0.796875 0.073756
vt 0.796875 0.090822
vt 0.796875 0.100671
vt 0.796875 0.102112
vt 0.798466 0.061015
vt 0.798932 0.059996
vt 0.000000 0.000000
vt 0.666964 0.095528
vt 0.666964 0.095528
vt 0.647578 0.095528
vt 0.647578 0.095528
s 1
usemtl restaurant.002
f 11/1/1 12/2/2 4/3/1 2/4/1
f 3/5/3 5/6/4 48/6/5 7/5/3
f 14/7/6 49/8/7 13/8/8 10/7/8
f 1/9/9 2/10/9 3/11/9
f 9/12/10 10/13/10 11/14/10
f 12/2/11 13/15/12 49/8/13 48/6/14 5/6/15 4/3/16
f 6/16/17 1/16/18 3/17/18 7/17/18
f 2/4/19 4/3/20 5/18/21 3/19/19
f 9/20/22 15/20/22 14/21/23 10/21/22
f 12/2/24 11/1/7 10/22/7 13/15/25
f 1/9/26 9/12/26 11/14/26 2/10/26
f 6/16/27 15/20/28 9/20/28 1/16/28
f 38/23/29 40/24/30 17/25/1
f 39/26/31 24/27/31 23/28/31 37/29/31
f 29/30/32 19/31/32 18/32/32 27/33/32
f 33/34/33 21/35/33 20/36/33 31/37/33
f 23/38/34 36/39/34 34/40/34 22/41/34
f 25/42/35 40/24/35 38/23/35 24/43/35
f 20/44/36 30/45/36 28/46/36 19/47/36
f 18/48/37 26/49/37 40/24/37 25/42/37
f 19/47/38 28/46/38 26/49/38 18/48/38
f 21/50/39 32/51/39 30/45/39 20/44/39
f 41/52/40 25/53/40 24/27/40 39/26/40
f 40/24/30 26/49/41 17/25/1
f 35/54/42 22/55/42 21/35/42 33/34/42
f 22/41/43 34/40/43 32/51/43 21/50/43
f 27/33/44 18/32/44 25/53/44 41/52/44
f 34/40/45 36/39/46 17/25/1
f 24/43/47 38/23/47 36/39/47 23/38/47
f 31/37/48 20/36/48 19/31/48 29/30/48
f 37/29/49 23/28/49 22/55/49 35/54/49
f 30/45/50 32/51/51 17/25/1
f 28/46/52 30/45/50 17/25/1
f 32/51/51 34/40/45 17/25/1
f 26/49/41 28/46/52 17/25/1
f 36/39/46 38/23/29 17/25/1
f 3/56/1 1/56/1 9/56/1 10/56/1 13/56/1 5/56/1
usemtl Material.001
f 15/20/28 6/16/27 42/16/53 46/20/28
f 49/8/7 14/7/6 45/7/57 51/8/58
f 6/16/17 7/17/18 43/17/18 42/16/17
f 7/5/3 48/6/5 50/6/59 43/5/3
f 14/21/23 15/20/22 46/20/22 45/21/23
f 43/17/60 50/6/61 51/8/62 45/21/63 46/20/60 42/16/64
f 16/57/65 8/59/66 48/6/14 49/8/13
f 44/60/67 47/58/68 51/8/69 50/6/14
f 47/58/68 16/57/65 49/8/13 51/8/69
f 8/59/66 44/60/67 50/6/14 48/6/14
f 53/57/80 55/58/81 54/60/82 52/59/83
usemtl Material.002
f 16/57/54 47/58/18 55/58/55 53/57/56
f 8/59/61 16/57/70 53/57/71 52/59/72
f 44/60/73 8/59/74 52/59/75 54/60/76
f 47/58/19 44/60/77 54/60/78 55/58/79
o drawer.001
v -0.860000 0.100000 2.089579
v -0.860000 0.140000 2.129579
v -0.900000 0.140000 2.089579
v -0.860000 0.360000 2.129579
v -0.900000 0.360000 2.089579
v -0.860000 0.100000 1.929579
v -0.900000 0.140000 1.929579
v -0.785902 0.360000 1.815481
v 0.860000 0.100000 2.089579
v 0.900000 0.140000 2.089579
v 0.860000 0.140000 2.129579
v 0.860000 0.360000 2.129579
v 0.900000 0.360000 2.089579
v 0.900000 0.140000 1.929579
v 0.860000 0.100000 1.929579
v 0.785902 0.360000 1.815481
v -0.000002 0.250000 2.221482
v -0.053979 0.303978 2.166376
v -0.076337 0.250001 2.166376
v -0.053979 0.196024 2.166376
v -0.000002 0.173666 2.166376
v 0.053976 0.196024 2.166376
v 0.076334 0.250001 2.166376
v 0.053976 0.303978 2.166376
v -0.000002 0.326336 2.166376
v -0.041761 0.291758 2.203665
v -0.041761 0.291758 2.129085
v -0.059058 0.250000 2.203665
v -0.059058 0.250000 2.129085
v -0.041761 0.208241 2.203665
v -0.041761 0.208241 2.129085
v -0.000002 0.190944 2.203665
v -0.000002 0.190944 2.129085
v 0.041757 0.208241 2.203665
v 0.041757 0.208241 2.129085
v 0.059054 0.250000 2.203665
v 0.059054 0.250000 2.129085
v 0.041757 0.291758 2.203665
v 0.041757 0.291758 2.129085
v -0.000002 0.309055 2.203665
v -0.000002 0.309055 2.129085
v -0.860000 0.100000 0.239338
v -0.900000 0.140000 0.239338
v -0.785902 0.360000 0.353435
v 0.900000 0.140000 0.239338
v 0.860000 0.100000 0.239338
v 0.785902 0.360000 0.353435
v -0.900000 0.360000 1.929579
v 0.900000 0.360000 1.929579
v -0.900000 0.360000 0.239338
v 0.900000 0.360000 0.239338
v -0.785902 0.102225 1.815481
v 0.785902 0.102225 1.815481
v -0.785902 0.102225 0.353435
v 0.785902 0.102225 0.353435
vn 0.3416 -0.3416 0.8756
vn -0.0789 0.6580 0.7489
vn -0.0000 -0.0000 1.0000
vn -0.3416 -0.3416 0.8756
vn -0.9239 -0.3827 -0.0000
vn -0.8823 0.2967 0.3655
vn -0.9495 0.3137 -0.0000
vn 0.8352 -0.3459 0.4275
vn 0.3851 0.3851 0.8387
vn 1.0000 -0.0000 -0.0000
vn -0.2418 -0.6861 0.6861
vn -0.6861 -0.2418 0.6861
vn 0.2418 -0.6861 0.6861
vn 0.6861 -0.2418 0.6861
vn 0.8346 0.5500 -0.0311
vn 0.0311 0.5500 0.8346
vn -0.3459 -0.8352 0.4275
vn -0.7071 -0.7071 -0.0000
vn 0.3827 -0.9239 -0.0000
vn 0.7071 -0.7071 -0.0000
vn -0.0000 -1.0000 -0.0000
vn 0.2042 0.2042 0.9574
vn -0.0000 0.2888 0.9574
vn 0.6416 0.6416 -0.4205
vn 0.9073 -0.0000 -0.4204
vn -0.9073 -0.0000 -0.4204
vn -0.6416 0.6416 -0.4204
vn -0.0000 -0.9073 -0.4204
vn -0.6416 -0.6416 -0.4204
vn 0.9073 -0.0000 0.4204
vn 0.6416 -0.6416 0.4204
vn -0.0000 0.9073 0.4205
vn 0.6416 0.6416 0.4205
vn -0.6416 -0.6416 0.4204
vn -0.9073 -0.0000 0.4204
vn -0.6416 0.6416 0.4205
vn -0.0000 -0.9073 0.4204
vn -0.0000 0.9073 -0.4205
vn -0.2042 0.2042 0.9574
vn 0.6416 -0.6416 -0.4204
vn 0.2042 -0.2042 0.9574
vn 0.2888 -0.0000 0.9574
vn -0.2042 -0.2042 0.9574
vn -0.0000 -0.2888 0.9574
vn -0.2888 -0.0000 0.9574
vn 0.1968 -0.7365 -0.6472
vn 0.2971 -0.7173 -0.6303
vn -0.1112 0.3336 -0.9361
vn -0.6893 0.2232 0.6893
vn -0.1426 0.7977 0.5859
vn -0.6551 -0.3770 -0.6548
vn 0.7365 0.1968 -0.6472
vn 0.6136 0.6137 0.4969
vn -0.7173 -0.2971 -0.6303
vn -0.7047 0.0831 -0.7047
vn 0.0115 0.9999 -0.0115
vn 0.6673 0.7066 0.2355
vn 0.4153 0.2359 -0.8786
vn 0.8786 0.2358 0.4154
vt 0.667878 0.092808
vt 0.667878 0.111153
vt 0.646665 0.111153
vt 0.646665 0.092808
vt 0.646171 0.077183
vt 0.646171 0.095528
vt 0.668371 0.077183
vt 0.668371 0.095528
vt 0.646665 0.058223
vt 0.646665 0.061558
vt 0.646171 0.061558
vt 0.667878 0.058223
vt 0.668371 0.061558
vt 0.667878 0.061558
vt 0.668371 0.111153
vt 0.646665 0.042598
vt 0.646171 0.045933
vt 0.646171 0.111153
vt 0.646171 0.092808
vt 0.667878 0.042598
vt 0.668371 0.045933
vt 0.668371 0.092808
vt 0.798466 0.130479
vt 0.796875 0.131921
vt 0.796875 0.111372
vt 0.798466 0.099229
vt 0.798932 0.100248
vt 0.799784 0.080122
vt 0.799125 0.080122
vt 0.794625 0.080122
vt 0.793966 0.080122
vt 0.794818 0.100248
vt 0.795284 0.099229
vt 0.796875 0.059572
vt 0.796875 0.058131
vt 0.794818 0.059996
vt 0.795284 0.061015
vt 0.799784 0.095747
vt 0.799125 0.111372
vt 0.798466 0.092265
vt 0.798932 0.075621
vt 0.796875 0.117737
vt 0.798932 0.115873
vt 0.794818 0.075621
vt 0.795284 0.092265
vt 0.794625 0.111372
vt 0.793966 0.095747
vt 0.794818 0.115873
vt 0.795284 0.130479
vt 0.796875 0.073756
vt 0.796875 0.090822
vt 0.796875 0.100671
vt 0.796875 0.102112
vt 0.798466 0.061015
vt 0.798932 0.059996
vt 0.000000 0.000000
vt 0.666964 0.095528
vt 0.666964 0.095528
vt 0.647578 0.095528
vt 0.647578 0.095528
s 1
usemtl restaurant.004
f 66/61/84 67/62/85 59/63/86 57/64/87
f 58/65/88 60/66/89 103/66/90 62/65/88
f 69/67/91 104/68/92 68/68/93 65/67/93
f 56/69/94 57/70/87 58/71/95
f 64/72/96 65/73/97 66/74/84
f 67/62/85 68/75/98 104/68/92 103/66/90 60/66/89 59/63/99
f 61/76/100 56/76/101 58/77/88 62/77/88
f 57/64/87 59/63/99 60/78/89 58/79/95
f 64/80/102 70/80/102 69/81/91 65/81/103
f 67/62/85 66/61/84 65/82/97 68/75/98
f 56/69/94 64/72/96 66/74/84 57/70/87
f 61/76/100 70/80/102 64/80/102 56/76/104
f 93/83/105 95/84/106 72/85/86
f 94/86/107 79/87/107 78/88/108 92/89/108
f 84/90/109 74/91/109 73/92/110 82/93/110
f 88/94/111 76/95/111 75/96/112 86/97/112
f 78/98/113 91/99/113 89/100/114 77/101/114
f 80/102/115 95/84/115 93/83/116 79/103/116
f 75/104/117 85/105/117 83/106/118 74/107/118
f 73/108/119 81/109/119 95/84/115 80/102/115
f 74/107/118 83/106/118 81/109/119 73/108/119
f 76/110/120 87/111/120 85/105/117 75/104/117
f 96/112/121 80/113/121 79/87/107 94/86/107
f 95/84/106 81/109/122 72/85/86
f 90/114/123 77/115/123 76/95/111 88/94/111
f 77/101/114 89/100/114 87/111/120 76/110/120
f 82/93/110 73/92/110 80/113/121 96/112/121
f 89/100/124 91/99/125 72/85/86
f 79/103/116 93/83/116 91/99/113 78/98/113
f 86/97/112 75/96/112 74/91/109 84/90/109
f 92/89/108 78/88/108 77/115/123 90/114/123
f 85/105/126 87/111/127 72/85/86
f 83/106/128 85/105/126 72/85/86
f 87/111/127 89/100/124 72/85/86
f 81/109/122 83/106/128 72/85/86
f 91/99/125 93/83/105 72/85/86
s 0
f 58/116/86 56/116/86 64/116/86 65/116/86 68/116/86 60/116/86
s 1
usemtl Material.006
f 70/80/102 61/76/100 97/76/129 101/80/130
f 104/68/92 69/67/91 100/67/135 106/68/136
f 61/76/100 62/77/88 98/77/137 97/76/129
f 62/65/88 103/66/90 105/66/138 98/65/137
f 69/81/91 70/80/102 101/80/130 100/81/135
f 98/77/137 105/66/138 106/68/136 100/81/135 101/80/130 97/76/129
f 71/117/131 63/119/139 103/66/90 104/68/92
f 99/120/140 102/118/132 106/68/136 105/66/138
f 102/118/132 71/117/131 104/68/92 106/68/136
f 63/119/139 99/120/140 105/66/138 103/66/90
f 108/117/134 110/118/133 109/120/142 107/119/141
usemtl Material.005
f 71/117/131 102/118/132 110/118/133 108/117/134
f 63/119/139 71/117/131 108/117/134 107/119/141
f 99/120/140 63/119/139 107/119/141 109/120/142
f 102/118/132 99/120/140 109/120/142 110/118/133
o kitchencounter_sink_Cube.001
v -1.000000 0.000000 0.800000
v -1.000000 0.800000 0.800000
v -1.000000 -0.000000 -1.000000
v -1.000000 0.800000 -1.000000
v 1.000000 0.000000 0.800000
v 1.000000 0.800000 0.800000
v 1.000000 -0.000000 -1.000000
v 1.000000 0.800000 -1.000000
v -1.000000 1.000000 0.950000
v 1.000000 1.000000 0.950000
v -1.000000 1.000000 -1.000000
v 1.000000 1.000000 -1.000000
v 1.000000 0.950000 1.000000
v -1.000000 0.950000 1.000000
v 1.000000 0.850000 1.000000
v 1.000000 0.800000 0.950000
v -1.000000 0.800000 0.950000
v -1.000000 0.850000 1.000000
v 0.709729 1.000000 -0.311062
v -0.709729 1.000000 -0.311062
v -0.709729 1.000000 0.511061
v 0.709729 1.000000 0.511061
v 0.236629 1.112596 -0.703506
v 0.170095 1.112596 -0.638123
v 0.169281 1.112596 -0.544844
v 0.234664 1.112596 -0.478309
v 0.327944 1.112596 -0.477495
v 0.394478 1.112596 -0.542878
v 0.395292 1.112596 -0.636158
v 0.329909 1.112596 -0.702692
v 0.246963 1.172135 -0.677925
v 0.231736 1.186054 -0.611956
v 0.194860 1.172135 -0.555177
v 0.260828 1.186054 -0.539951
v 0.302856 1.186054 -0.539584
v 0.332834 1.186054 -0.569043
v 0.369710 1.172135 -0.625822
v 0.303742 1.186054 -0.641048
v 0.246963 0.957258 -0.677925
v 0.195490 0.957258 -0.627342
v 0.194860 0.957258 -0.555177
v 0.245442 0.957258 -0.503704
v 0.317607 0.957258 -0.503074
v 0.369081 0.957258 -0.553657
v 0.369710 0.957258 -0.625822
v 0.319128 0.957258 -0.677295
v 0.554686 1.177118 -0.620205
v 0.573301 1.129565 -0.628460
v 0.554167 1.177118 -0.554896
v 0.572648 1.129565 -0.546287
v -0.236629 1.112596 -0.703506
v -0.170095 1.112596 -0.638123
v -0.169281 1.112596 -0.544844
v -0.234664 1.112596 -0.478309
v -0.327944 1.112596 -0.477495
v -0.394478 1.112596 -0.542878
v -0.395292 1.112596 -0.636158
v -0.329909 1.112596 -0.702692
v -0.246963 1.172135 -0.677925
v -0.231736 1.186054 -0.611956
v -0.194860 1.172135 -0.555177
v -0.260828 1.186054 -0.539951
v -0.302856 1.186054 -0.539584
v -0.332833 1.186054 -0.569043
v -0.369710 1.172135 -0.625822
v -0.303742 1.186054 -0.641048
v -0.246963 0.957258 -0.677925
v -0.195489 0.957258 -0.627342
v -0.194860 0.957258 -0.555177
v -0.245442 0.957258 -0.503704
v -0.317607 0.957258 -0.503074
v -0.369080 0.957258 -0.553657
v -0.369710 0.957258 -0.625822
v -0.319127 0.957258 -0.677295
v -0.554690 1.177118 -0.620205
v -0.573305 1.129565 -0.628461
v -0.554170 1.177118 -0.554896
v -0.572651 1.129565 -0.546287
v 0.579016 1.000000 -0.400000
v 0.800000 1.000000 -0.182277
v 0.689508 1.000000 -0.370831
v 0.770394 1.000000 -0.291138
v -0.800000 1.000000 -0.182277
v -0.579016 1.000000 -0.400000
v -0.770394 1.000000 -0.291138
v -0.689508 1.000000 -0.370831
v -0.579016 1.000000 0.600000
v -0.800000 1.000000 0.382277
v -0.689508 1.000000 0.570831
v -0.770394 1.000000 0.491138
v 0.800000 1.000000 0.382277
v 0.579016 1.000000 0.600000
v 0.770394 1.000000 0.491138
v 0.689508 1.000000 0.570831
v -0.396967 0.700000 -0.261490
v -0.658506 0.700000 -0.015027
v -0.527737 0.700000 -0.228470
v -0.623466 0.700000 -0.138258
v 0.658506 0.700000 -0.015027
v 0.396967 0.700000 -0.261490
v 0.623466 0.700000 -0.138258
v 0.527737 0.700000 -0.228470
v 0.396967 0.700000 0.461490
v 0.658506 0.700000 0.215026
v 0.527737 0.700000 0.428470
v 0.623466 0.700000 0.338258
v -0.658506 0.700000 0.215026
v -0.396967 0.700000 0.461490
v -0.623466 0.700000 0.338258
v -0.527737 0.700000 0.428470
v -0.800000 1.080001 -0.181568
v -0.578176 1.080001 -0.400000
v -0.770281 1.080001 -0.290784
v -0.689088 1.080001 -0.370736
v 0.578176 1.080001 -0.400000
v 0.800000 1.080001 -0.181568
v 0.689088 1.080001 -0.370736
v 0.770281 1.080001 -0.290784
v 0.800000 1.080001 0.381568
v 0.578176 1.080001 0.600000
v 0.770281 1.080001 0.490784
v 0.689088 1.080001 0.570736
v -0.578176 1.080001 0.600000
v -0.800000 1.080001 0.381568
v -0.689088 1.080001 0.570736
v -0.770281 1.080001 0.490784
v -0.700000 1.080001 -0.081252
v -0.477192 1.080001 -0.300000
v -0.670149 1.080001 -0.190626
v -0.588596 1.080001 -0.270693
v 0.477192 1.080001 -0.300000
v 0.700000 1.080001 -0.081252
v 0.588596 1.080001 -0.270693
v 0.670149 1.080001 -0.190626
v 0.700000 1.080001 0.281252
v 0.477192 1.080001 0.500000
v 0.670149 1.080001 0.390626
v 0.588596 1.080001 0.470693
v -0.477192 1.080001 0.500000
v -0.700000 1.080001 0.281252
v -0.588596 1.080001 0.470693
v -0.670149 1.080001 0.390626
v 0.000000 0.700000 0.100000
v 0.031250 1.497499 -0.644129
v 0.054127 1.497499 -0.621252
v 0.054127 1.497499 -0.558752
v 0.031250 1.497499 -0.535875
v -0.031250 1.497499 -0.535875
v -0.054127 1.497499 -0.558752
v -0.054127 1.497499 -0.621252
v -0.031250 1.497499 -0.644129
v 0.031250 1.613884 -0.620978
v 0.054127 1.605129 -0.599843
v 0.054127 1.581211 -0.542101
v 0.031250 1.572457 -0.520966
v -0.031250 1.572457 -0.520966
v -0.054127 1.581211 -0.542101
v -0.054127 1.605129 -0.599843
v -0.031250 1.613884 -0.620978
v 0.031250 1.712549 -0.555052
v 0.054127 1.696373 -0.538876
v 0.054127 1.652179 -0.494682
v 0.031250 1.636003 -0.478505
v -0.031250 1.636003 -0.478505
v -0.054127 1.652179 -0.494682
v -0.054127 1.696373 -0.538876
v -0.031250 1.712549 -0.555052
v 0.031250 1.778476 -0.456386
v 0.054127 1.757341 -0.447632
v 0.054127 1.699598 -0.423714
v 0.031250 1.678463 -0.414960
v -0.031250 1.678463 -0.414960
v -0.054127 1.699598 -0.423714
v -0.054127 1.757341 -0.447632
v -0.031250 1.778476 -0.456386
v 0.031250 1.801626 -0.340002
v 0.054127 1.778749 -0.340002
v 0.054127 1.716249 -0.340002
v 0.031250 1.693373 -0.340002
v -0.031250 1.693373 -0.340002
v -0.054127 1.716249 -0.340002
v -0.054127 1.778749 -0.340002
v -0.031250 1.801626 -0.340002
v 0.031250 1.778476 -0.223618
v 0.054127 1.757341 -0.232372
v 0.054127 1.699598 -0.256290
v 0.031250 1.678463 -0.265045
v -0.031250 1.678463 -0.265045
v -0.054127 1.699598 -0.256290
v -0.054127 1.757341 -0.232372
v -0.031250 1.778476 -0.223618
v 0.031250 1.712549 -0.124952
v 0.054127 1.696373 -0.141128
v 0.054127 1.652179 -0.185322
v 0.031250 1.636003 -0.201499
v -0.031250 1.636003 -0.201499
v -0.054127 1.652179 -0.185322
v -0.054127 1.696373 -0.141128
v -0.031250 1.712549 -0.124952
v 0.031250 1.613884 -0.059026
v 0.054127 1.605129 -0.080161
v 0.054127 1.581211 -0.137903
v 0.031250 1.572457 -0.159039
v -0.031250 1.572457 -0.159039
v -0.054127 1.581211 -0.137903
v -0.054127 1.605129 -0.080161
v -0.031250 1.613884 -0.059026
v 0.031250 1.497499 -0.035875
v 0.054127 1.497499 -0.058752
v 0.054127 1.497499 -0.121252
v 0.031250 1.497499 -0.144129
v -0.031250 1.497499 -0.144129
v -0.054127 1.497499 -0.121252
v -0.054127 1.497499 -0.058752
v -0.031250 1.497499 -0.035875
v -0.031250 1.122499 -0.644129
v -0.054127 1.122499 -0.621252
v -0.054127 1.122499 -0.558752
v -0.031250 1.122499 -0.535875
v 0.031250 1.122499 -0.535875
v 0.054127 1.122499 -0.558752
v 0.054127 1.122499 -0.621252
v 0.031250 1.122499 -0.644129
v -0.081250 1.122499 -0.449273
v -0.140729 1.122499 -0.508752
v 0.140729 1.122499 -0.508752
v -0.140729 1.122499 -0.671252
v -0.081250 1.122499 -0.730731
v 0.140729 1.122499 -0.671252
v 0.081250 1.122499 -0.449273
v 0.081250 1.122499 -0.730731
v -0.140880 0.997499 -0.449122
v 0.140880 0.997499 -0.449122
v -0.140880 0.997499 -0.730882
v 0.140880 0.997499 -0.730882
v -0.025354 1.497499 -0.064648
v -0.025354 1.497499 -0.115356
v 0.025354 1.497499 -0.115356
v 0.025354 1.497499 -0.064648
v 0.000000 1.587499 -0.110002
v 0.000000 0.700000 -0.025001
v 0.088388 0.700000 0.011611
v 0.125000 0.700000 0.099999
v 0.088388 0.700000 0.188388
v 0.000000 0.700000 0.224999
v -0.088388 0.700000 0.188388
v -0.125000 0.700000 0.099999
v -0.088388 0.700000 0.011611
v 0.065427 0.750000 0.034572
v 0.000000 0.750000 0.007471
v -0.065427 0.750000 0.034572
v -0.092528 0.750000 0.099999
v -0.065427 0.750000 0.165427
v 0.000000 0.750000 0.192528
v 0.065427 0.750000 0.165427
v 0.092528 0.750000 0.099999
v 0.000000 0.720000 0.099999
v 0.044840 0.720000 0.055159
v 0.000000 0.720000 0.036585
v 0.063414 0.720000 0.099999
v -0.044840 0.720000 0.055159
v -0.063414 0.720000 0.099999
v -0.044840 0.720000 0.144840
v 0.000000 0.720000 0.163413
v 0.044840 0.720000 0.144840
v 0.319128 1.172135 -0.677295
v 0.261714 1.186054 -0.641415
v 0.195489 1.172135 -0.627342
v 0.231370 1.186054 -0.569928
v 0.369080 1.172135 -0.553657
v 0.333200 1.186054 -0.611071
v 0.317607 1.172135 -0.503074
v 0.245442 1.172135 -0.503704
v -0.319127 1.172135 -0.677295
v -0.261714 1.186054 -0.641415
v -0.195489 1.172135 -0.627342
v -0.231370 1.186054 -0.569928
v -0.369080 1.172135 -0.553657
v -0.333200 1.186054 -0.611071
v -0.317607 1.172135 -0.503074
v -0.245442 1.172135 -0.503704
v 0.258307 1.224587 -0.649847
v 0.282285 1.241522 -0.590499
v 0.222937 1.224587 -0.566521
v 0.341633 1.224587 -0.614478
v 0.257275 1.224587 -0.531579
v 0.307295 1.224587 -0.649420
v 0.341205 1.224587 -0.565489
v 0.306263 1.224587 -0.531151
v 0.223365 1.224587 -0.615510
v -0.258307 1.224587 -0.649847
v -0.282285 1.241522 -0.590499
v -0.222937 1.224587 -0.566521
v -0.341633 1.224587 -0.614478
v -0.257275 1.224587 -0.531579
v -0.307295 1.224587 -0.649420
v -0.341205 1.224587 -0.565489
v -0.306263 1.224587 -0.531151
v -0.223364 1.224587 -0.615510
v -0.910928 0.089072 -1.000000
v -0.910928 0.710928 -1.000000
v 0.910928 0.710928 -1.000000
v 0.910928 0.089072 -1.000000
v 0.910928 0.089072 0.800000
v 0.910928 0.710928 0.800000
v -0.910928 0.710928 0.800000
v -0.910928 0.089072 0.800000
v 0.910928 0.089072 -0.948147
v 0.910928 0.710928 -0.948148
v -0.910928 0.089072 -0.948147
v -0.910928 0.710928 -0.948148
vn -0.0000 -0.0000 -1.0000
vn 1.0000 -0.0000 -0.0000
vn -0.7071 -0.7071 -0.0000
vn 0.7071 -0.7071 -0.0000
vn -1.0000 -0.0000 -0.0000
vn -0.0000 -0.3827 0.9239
vn -0.0000 0.3827 0.9239
vn -0.0000 0.7071 0.7071
vn -0.0000 -0.9239 0.3827
vn -0.0000 -1.0000 -0.0000
vn -0.0000 1.0000 -0.0000
vn 0.9911 0.0012 0.1331
vn 0.9911 0.0012 -0.1331
vn 0.9913 0.0012 -0.1317
vn 0.9913 0.0012 0.1317
vn -0.1295 0.0013 0.9916
vn 0.1295 0.0013 0.9916
vn 0.1278 0.0013 0.9918
vn -0.1278 0.0013 0.9918
vn -0.1092 0.1223 0.9865
vn -0.1395 0.1281 0.9819
vn 0.1395 0.1281 0.9819
vn 0.1092 0.1223 0.9865
vn 0.1092 0.1223 -0.9865
vn 0.1395 0.1281 -0.9819
vn -0.1395 0.1281 -0.9819
vn -0.1092 0.1223 -0.9865
vn -0.9911 0.0012 -0.1331
vn -0.9911 0.0012 0.1331
vn -0.9913 0.0012 0.1317
vn -0.9913 0.0012 -0.1317
vn -0.9842 0.1293 -0.1211
vn -0.9800 0.1336 -0.1473
vn -0.9800 0.1336 0.1473
vn -0.9842 0.1293 0.1211
vn 0.9842 0.1293 0.1211
vn 0.9800 0.1336 0.1473
vn 0.9800 0.1336 -0.1473
vn 0.9842 0.1293 -0.1211
vn 0.3803 -0.2297 0.8959
vn 0.9024 -0.2297 0.3646
vn -0.9138 0.1203 -0.3879
vn -0.9063 -0.1749 -0.3847
vn -0.9129 -0.1749 0.3688
vn -0.9205 0.1203 0.3719
vn -0.3879 0.1203 0.9138
vn -0.3847 -0.1749 0.9063
vn 0.3688 -0.1749 0.9129
vn 0.3719 0.1203 0.9205
vn -0.3719 0.1203 -0.9205
vn -0.3688 -0.1749 -0.9129
vn 0.6651 0.0779 0.7427
vn 0.4104 0.3290 0.8505
vn 0.3399 0.4204 0.8413
vn 0.3879 0.1203 -0.9138
vn 0.3545 0.4205 -0.8352
vn 0.4272 0.3295 -0.8420
vn 0.6793 0.0785 -0.7297
vn -0.8413 0.4204 0.3399
vn -0.8352 0.4204 -0.3545
vn -0.3399 0.4204 -0.8413
vn -0.3545 0.4204 0.8352
vn 0.3719 0.1203 -0.9205
vn 0.3688 -0.1749 -0.9129
vn -0.3847 -0.1749 -0.9063
vn -0.3879 0.1203 -0.9138
vn 0.3803 -0.2297 -0.8959
vn -0.3646 -0.2297 -0.9024
vn 0.9063 -0.1749 0.3847
vn -0.9024 -0.2297 0.3646
vn -0.3803 -0.2297 0.8959
vn -0.0269 0.9996 -0.0002
vn 0.1794 0.9808 -0.0769
vn 0.1777 0.9808 0.0799
vn 0.9129 -0.1749 -0.3688
vn 0.3847 -0.1749 -0.9063
vn -0.3646 -0.2297 0.9024
vn 0.3646 -0.2297 0.9024
vn -0.8959 -0.2297 0.3803
vn 0.8959 -0.2297 0.3803
vn -0.3803 -0.2297 -0.8959
vn -0.9024 -0.2297 -0.3646
vn 0.0018 0.1789 0.9839
vn 0.0948 -0.9955 0.0008
vn 0.9316 0.3634 0.0074
vn 0.9024 -0.2297 -0.3646
vn 0.9205 0.1203 0.3719
vn 0.9129 -0.1749 0.3688
vn 0.9063 -0.1749 -0.3847
vn 0.9138 0.1203 -0.3879
vn -0.3719 0.1203 0.9205
vn -0.3688 -0.1749 0.9129
vn 0.3847 -0.1749 0.9063
vn 0.3879 0.1203 0.9138
vn -0.6651 0.0779 0.7427
vn -0.3399 0.4204 0.8413
vn -0.4104 0.3290 0.8505
vn -0.6793 0.0785 -0.7297
vn -0.4272 0.3295 -0.8420
vn -0.3545 0.4205 -0.8352
vn 0.8352 0.4204 -0.3545
vn 0.8413 0.4204 0.3399
vn 0.3399 0.4204 -0.8413
vn 0.3545 0.4204 0.8352
vn -0.9063 -0.1749 0.3847
vn 0.0269 0.9996 -0.0002
vn -0.1777 0.9808 0.0799
vn -0.1794 0.9808 -0.0769
vn -0.9129 -0.1749 -0.3688
vn 0.8959 -0.2297 -0.3803
vn -0.8959 -0.2297 -0.3803
vn 0.3646 -0.2297 -0.9024
vn -0.0018 0.1789 0.9839
vn -0.0948 -0.9955 0.0008
vn -0.9316 0.3634 0.0074
vn -0.1278 0.0013 -0.9918
vn -0.1295 0.0013 -0.9916
vn -0.4956 0.0036 -0.8685
vn -0.4945 0.0036 -0.8692
vn -0.8629 0.0035 -0.5054
vn -0.8634 0.0035 -0.5045
vn -0.4945 0.0036 0.8692
vn -0.4956 0.0036 0.8685
vn -0.8634 0.0035 0.5045
vn -0.8629 0.0035 0.5054
vn 0.8629 0.0035 -0.5054
vn 0.8634 0.0035 -0.5045
vn 0.4956 0.0036 -0.8685
vn 0.4945 0.0036 -0.8692
vn 0.1295 0.0013 -0.9916
vn 0.1278 0.0013 -0.9918
vn 0.4956 0.0036 0.8685
vn 0.4945 0.0036 0.8692
vn 0.8629 0.0035 0.5054
vn 0.8634 0.0035 0.5045
vn 0.8500 0.1737 0.4973
vn 0.8406 0.1748 0.5127
vn 0.4675 0.1705 0.8674
vn 0.4907 0.1725 0.8541
vn -0.8406 0.1748 0.5127
vn -0.8500 0.1737 0.4973
vn -0.4907 0.1725 0.8541
vn -0.4675 0.1705 0.8674
vn 0.4675 0.1705 -0.8674
vn 0.4907 0.1725 -0.8541
vn 0.8500 0.1737 -0.4973
vn 0.8406 0.1748 -0.5127
vn -0.4907 0.1725 -0.8541
vn -0.4675 0.1705 -0.8674
vn -0.8406 0.1748 -0.5127
vn -0.8500 0.1737 -0.4973
vn -0.3668 0.3560 -0.8595
vn -0.3668 0.6578 -0.6578
vn 0.3668 0.6578 -0.6578
vn 0.3668 0.3560 -0.8595
vn 0.3735 0.0894 -0.9233
vn 0.7071 0.2706 -0.6533
vn 0.9148 0.0415 -0.4019
vn 0.9318 -0.0341 0.3613
vn 0.7071 -0.2706 0.6533
vn 0.4006 -0.3506 0.8465
vn 0.3901 -0.0921 0.9162
vn 0.4006 -0.6479 0.6479
vn -0.4006 -0.6479 0.6479
vn -0.4006 -0.3506 0.8465
vn -0.3901 -0.0921 0.9162
vn -0.7071 -0.2706 0.6533
vn -0.9318 -0.0341 0.3613
vn -0.9148 0.0415 -0.4019
vn -0.7071 0.2706 -0.6533
vn -0.3735 0.0894 -0.9233
vn -0.3668 0.8595 -0.3560
vn 0.3668 0.8595 -0.3560
vn 0.7071 0.5000 -0.5000
vn 0.7071 -0.5000 0.5000
vn 0.4006 -0.8465 0.3506
vn -0.4006 -0.8465 0.3506
vn -0.7071 -0.5000 0.5000
vn -0.7071 0.5000 -0.5000
vn -0.3668 0.9303 -0.0000
vn 0.3668 0.9303 -0.0000
vn 0.7071 0.6533 -0.2706
vn 0.7071 -0.6533 0.2706
vn 0.4006 -0.9163 -0.0000
vn -0.4006 -0.9163 -0.0000
vn -0.7071 -0.6533 0.2706
vn -0.7071 0.6533 -0.2706
vn -0.3668 0.8595 0.3560
vn 0.3668 0.8595 0.3560
vn 0.7071 0.7071 -0.0000
vn 0.4006 -0.8465 -0.3506
vn -0.4006 -0.8465 -0.3506
vn -0.7071 0.7071 -0.0000
vn -0.3668 0.6578 0.6578
vn 0.3668 0.6578 0.6578
vn 0.7071 0.6533 0.2706
vn 0.7071 -0.6533 -0.2706
vn 0.4006 -0.6479 -0.6479
vn -0.4006 -0.6479 -0.6479
vn -0.7071 -0.6533 -0.2706
vn -0.7071 0.6533 0.2706
vn -0.3668 0.3560 0.8595
vn 0.3668 0.3560 0.8595
vn 0.7071 0.5000 0.5000
vn 0.7071 -0.5000 -0.5000
vn 0.4006 -0.3506 -0.8465
vn -0.4006 -0.3506 -0.8465
vn -0.7071 -0.5000 -0.5000
vn -0.7071 0.5000 0.5000
vn -0.3607 0.1820 0.9148
vn 0.3607 0.1820 0.9148
vn 0.7071 0.2706 0.6533
vn 0.7071 -0.2706 -0.6533
vn 0.3941 -0.1793 -0.9014
vn -0.3941 -0.1793 -0.9014
vn -0.7071 -0.2706 -0.6533
vn -0.7071 0.2706 0.6533
vn 0.7002 0.1393 0.7002
vn -0.0000 -0.0000 1.0000
vn 0.7002 -0.1393 -0.7002
vn -0.7002 -0.1393 -0.7002
vn -0.7002 0.1393 0.7002
vn 0.7071 -0.0000 0.7071
vn 0.9239 -0.0000 0.3827
vn -0.9239 -0.0000 -0.3827
vn -0.9239 -0.0000 0.3827
vn 0.9239 -0.0000 -0.3827
vn 0.7071 -0.0000 -0.7071
vn -0.7071 -0.0000 -0.7071
vn -0.7071 -0.0000 0.7071
vn 1.0000 0.0012 -0.0000
vn 0.6698 0.3204 -0.6698
vn -0.0000 0.0012 -1.0000
vn -1.0000 0.0012 -0.0000
vn -0.0000 0.0012 1.0000
vn -0.6698 0.3204 -0.6698
vn 0.6698 0.3204 0.6698
vn -0.6698 0.3204 0.6698
vn -0.0000 -0.4500 -0.8930
vn -0.0000 -0.0594 0.9982
vn 0.9625 -0.2712 -0.0000
vn -0.9625 -0.2712 -0.0000
vn 0.5930 0.5447 -0.5930
vn 0.8387 0.5447 -0.0000
vn 0.5930 0.5447 0.5930
vn -0.0000 0.5447 0.8387
vn -0.5930 0.5447 0.5930
vn -0.8387 0.5447 -0.0000
vn -0.5930 0.5447 -0.5930
vn -0.0000 0.6964 -0.7176
vn -0.5074 0.6964 -0.5074
vn -0.0000 0.5447 -0.8387
vn 0.7176 0.6964 -0.0000
vn 0.5074 0.6964 -0.5074
vn -0.0000 0.6964 0.7176
vn 0.5074 0.6964 0.5074
vn -0.5074 0.6964 0.5074
vn -0.7176 0.6964 -0.0000
vn 0.0251 0.1810 -0.9832
vn -0.0251 0.1810 -0.9832
vn -0.1248 0.9428 -0.3090
vn 0.1302 0.9428 -0.3068
vn -0.3068 0.9428 -0.1302
vn -0.3090 0.9428 0.1248
vn 0.3090 0.9428 -0.1248
vn 0.3068 0.9428 0.1302
vn 0.1248 0.9428 0.3090
vn -0.1302 0.9428 0.3068
vn -0.1302 0.9428 -0.3068
vn 0.1248 0.9428 -0.3090
vn 0.3068 0.9428 -0.1302
vn 0.3090 0.9428 0.1248
vn -0.3068 0.9428 0.1302
vn -0.3090 0.9428 -0.1248
vn -0.1248 0.9428 0.3090
vn 0.1302 0.9428 0.3068
vn 0.2371 0.9667 -0.0958
vn 0.0999 0.9667 -0.2354
vn -0.0958 0.9667 -0.2371
vn 0.0958 0.9667 0.2371
vn 0.2354 0.9667 0.0999
vn -0.2371 0.9667 0.0958
vn -0.0999 0.9667 0.2354
vn -0.2354 0.9667 -0.0999
vn -0.2371 0.9667 -0.0958
vn -0.0999 0.9667 -0.2354
vn 0.0958 0.9667 -0.2371
vn -0.0958 0.9667 0.2371
vn -0.2354 0.9667 0.0999
vn 0.2371 0.9667 0.0958
vn 0.0999 0.9667 0.2354
vn 0.2354 0.9667 -0.0999
vt 0.936799 0.057311
vt 0.936798 0.109166
vt 0.969452 0.109166
vt 0.969452 0.057311
vt 0.971048 0.116593
vt 0.971048 0.049884
vt 0.821988 0.116593
vt 0.821988 0.133271
vt 0.821988 0.120763
vt 0.849518 0.120763
vt 0.849518 0.129102
vt 0.821988 0.129102
vt 0.849518 0.116593
vt 0.849518 0.133271
vt 0.935202 0.049884
vt 0.935202 0.116593
vt 0.849518 0.148896
vt 0.821988 0.148896
vt 0.821988 0.144727
vt 0.849518 0.144727
vt 0.849518 0.105138
vt 0.821988 0.105138
vt 0.821988 0.100968
vt 0.849518 0.100968
vt 0.821988 0.085343
vt 0.849518 0.085343
vt 0.935202 0.018634
vt 0.971048 0.018634
vt 0.849518 0.164521
vt 0.821988 0.164521
vt 0.825984 0.164521
vt 0.845522 0.164521
vt 0.467983 0.883271
vt 0.467983 0.889942
vt 0.415437 0.883271
vt 0.459563 0.883271
vt 0.459531 0.889942
vt 0.415469 0.889942
vt 0.452626 0.858255
vt 0.455683 0.889942
vt 0.419317 0.889942
vt 0.422374 0.858255
vt 0.419317 0.921192
vt 0.455683 0.921192
vt 0.459531 0.921192
vt 0.415469 0.921192
vt 0.407017 0.883271
vt 0.407017 0.889942
vt 0.467983 0.921192
vt 0.464173 0.921192
vt 0.462592 0.858255
vt 0.464173 0.889942
vt 0.412408 0.858255
vt 0.410827 0.889942
vt 0.427561 0.898785
vt 0.428684 0.898785
vt 0.429005 0.901999
vt 0.427697 0.901999
vt 0.443981 0.892660
vt 0.444949 0.879707
vt 0.444925 0.879707
vt 0.443950 0.892660
vt 0.446442 0.892660
vt 0.446852 0.879707
vt 0.449602 0.879707
vt 0.449996 0.892660
vt 0.446516 0.892660
vt 0.446910 0.879707
vt 0.452531 0.908285
vt 0.451563 0.913250
vt 0.449602 0.913250
vt 0.449996 0.908285
vt 0.450071 0.908285
vt 0.449660 0.913250
vt 0.451587 0.913250
vt 0.452562 0.908285
vt 0.443950 0.908285
vt 0.444925 0.913250
vt 0.444949 0.913250
vt 0.443981 0.908285
vt 0.446516 0.908285
vt 0.446910 0.913250
vt 0.446442 0.908285
vt 0.446852 0.913250
vt 0.428484 0.892660
vt 0.428090 0.879707
vt 0.425340 0.879707
vt 0.424929 0.892660
vt 0.449074 0.898785
vt 0.447472 0.898785
vt 0.447342 0.901999
vt 0.449209 0.901999
vt 0.451563 0.879707
vt 0.452531 0.892660
vt 0.446316 0.898785
vt 0.447439 0.898785
vt 0.447303 0.901999
vt 0.445995 0.901999
vt 0.458616 0.929290
vt 0.458636 0.929290
vt 0.451587 0.928875
vt 0.451563 0.928875
vt 0.452562 0.892660
vt 0.451587 0.879707
vt 0.449660 0.879707
vt 0.450071 0.892660
vt 0.425960 0.898785
vt 0.425830 0.901999
vt 0.449040 0.898785
vt 0.449170 0.901999
vt 0.424818 0.898785
vt 0.424499 0.901999
vt 0.450182 0.898785
vt 0.450501 0.901999
vt 0.425926 0.898785
vt 0.424804 0.898785
vt 0.424482 0.901999
vt 0.425791 0.901999
vt 0.459320 0.909700
vt 0.458616 0.913665
vt 0.459345 0.878450
vt 0.459320 0.878450
vt 0.452531 0.877035
vt 0.452562 0.877035
vt 0.459345 0.909700
vt 0.458636 0.913665
vt 0.450196 0.898785
vt 0.450518 0.901999
vt 0.431050 0.892660
vt 0.430075 0.879707
vt 0.430051 0.879707
vt 0.431019 0.892660
vt 0.425004 0.892660
vt 0.425398 0.879707
vt 0.428148 0.879707
vt 0.428558 0.892660
vt 0.422469 0.908285
vt 0.425004 0.908285
vt 0.425398 0.913250
vt 0.423437 0.913250
vt 0.424929 0.908285
vt 0.422438 0.908285
vt 0.423413 0.913250
vt 0.425340 0.913250
vt 0.431050 0.908285
vt 0.431019 0.908285
vt 0.430051 0.913250
vt 0.430075 0.913250
vt 0.428484 0.908285
vt 0.428090 0.913250
vt 0.428558 0.908285
vt 0.428148 0.913250
vt 0.422469 0.892660
vt 0.423437 0.879707
vt 0.416384 0.929290
vt 0.423437 0.928875
vt 0.423413 0.928875
vt 0.416364 0.929290
vt 0.423413 0.879707
vt 0.422438 0.892660
vt 0.428670 0.898785
vt 0.428989 0.901999
vt 0.446330 0.898785
vt 0.446011 0.901999
vt 0.427528 0.898785
vt 0.427658 0.901999
vt 0.416384 0.913665
vt 0.415680 0.909700
vt 0.415655 0.878450
vt 0.422438 0.877035
vt 0.422469 0.877035
vt 0.415680 0.878450
vt 0.415655 0.909700
vt 0.416364 0.913665
vt 0.407017 0.921192
vt 0.410827 0.921192
vt 0.411227 0.883271
vt 0.411243 0.889942
vt 0.408145 0.883271
vt 0.408149 0.889942
vt 0.466855 0.883271
vt 0.466851 0.889942
vt 0.463773 0.883271
vt 0.463757 0.889942
vt 0.411243 0.921192
vt 0.415072 0.921192
vt 0.408149 0.921192
vt 0.411965 0.921192
vt 0.466851 0.921192
vt 0.463035 0.921192
vt 0.463757 0.921192
vt 0.459928 0.921192
vt 0.413744 0.858255
vt 0.411965 0.889942
vt 0.417391 0.858255
vt 0.415072 0.889942
vt 0.463035 0.889942
vt 0.461256 0.858255
vt 0.459928 0.889942
vt 0.457609 0.858255
vt 0.452626 0.873880
vt 0.457609 0.873880
vt 0.437500 0.873880
vt 0.461256 0.873880
vt 0.462592 0.873880
vt 0.422374 0.873880
vt 0.417391 0.873880
vt 0.413744 0.873880
vt 0.412408 0.873880
vt 0.436309 0.934461
vt 0.436309 0.942688
vt 0.438691 0.942688
vt 0.438691 0.934461
vt 0.438691 0.940381
vt 0.438691 0.950086
vt 0.439562 0.949356
vt 0.439562 0.940381
vt 0.439562 0.941339
vt 0.439562 0.937654
vt 0.439562 0.931736
vt 0.439562 0.933731
vt 0.439562 0.924756
vt 0.438691 0.931006
vt 0.438691 0.924756
vt 0.438691 0.920680
vt 0.436309 0.920680
vt 0.436309 0.915381
vt 0.438691 0.915381
vt 0.436309 0.924756
vt 0.436309 0.931006
vt 0.435438 0.931736
vt 0.435438 0.924756
vt 0.435438 0.937654
vt 0.435438 0.941339
vt 0.435438 0.933731
vt 0.435438 0.940381
vt 0.435438 0.949356
vt 0.436309 0.950086
vt 0.436309 0.940381
vt 0.436309 0.948186
vt 0.438691 0.948186
vt 0.438691 0.958313
vt 0.439562 0.956964
vt 0.439562 0.946423
vt 0.439562 0.941608
vt 0.438691 0.936305
vt 0.438691 0.924221
vt 0.436309 0.924221
vt 0.436309 0.936305
vt 0.435438 0.941608
vt 0.435438 0.946423
vt 0.435438 0.956964
vt 0.436309 0.958313
vt 0.436309 0.950116
vt 0.438691 0.950116
vt 0.438691 0.963811
vt 0.439562 0.962048
vt 0.439562 0.948209
vt 0.439562 0.942997
vt 0.438691 0.939846
vt 0.438691 0.925464
vt 0.436309 0.925464
vt 0.436309 0.939846
vt 0.435438 0.942997
vt 0.435438 0.948209
vt 0.435438 0.962048
vt 0.436309 0.963811
vt 0.438691 0.965741
vt 0.439562 0.963834
vt 0.438691 0.941089
vt 0.436309 0.941089
vt 0.435438 0.963834
vt 0.436309 0.965741
vt 0.438691 0.909131
vt 0.436309 0.909131
vt 0.436309 0.877861
vt 0.438691 0.877861
vt 0.438691 0.893486
vt 0.439562 0.893486
vt 0.436309 0.893486
vt 0.435438 0.893486
vt 0.439562 0.909111
vt 0.438691 0.909111
vt 0.439562 0.924736
vt 0.442862 0.924736
vt 0.436309 0.909111
vt 0.435438 0.909111
vt 0.438691 0.893506
vt 0.436309 0.893506
vt 0.436534 0.893506
vt 0.438466 0.893506
vt 0.438691 0.924736
vt 0.440596 0.924736
vt 0.435438 0.924736
vt 0.436309 0.924736
vt 0.434404 0.924736
vt 0.432138 0.924736
vt 0.442862 0.893486
vt 0.442868 0.883062
vt 0.440596 0.909111
vt 0.442862 0.909111
vt 0.442868 0.898687
vt 0.434404 0.893486
vt 0.440596 0.893486
vt 0.432132 0.883062
vt 0.432138 0.893486
vt 0.432138 0.909111
vt 0.434404 0.909111
vt 0.432132 0.898687
vt 0.435438 0.893506
vt 0.439562 0.893506
vt 0.438466 0.831006
vt 0.436534 0.831006
vt 0.437500 0.838511
vt 0.440868 0.858255
vt 0.439993 0.862424
vt 0.441026 0.862424
vt 0.442263 0.858255
vt 0.437500 0.862424
vt 0.437500 0.858255
vt 0.435007 0.862424
vt 0.434132 0.858255
vt 0.433974 0.862424
vt 0.432737 0.858255
vt 0.437500 0.846799
vt 0.439993 0.846799
vt 0.439209 0.844297
vt 0.437500 0.844297
vt 0.433974 0.846799
vt 0.435007 0.846799
vt 0.435791 0.844297
vt 0.435084 0.844297
vt 0.441026 0.846799
vt 0.439916 0.844297
vt 0.437500 0.828672
vt 0.439209 0.828672
vt 0.439916 0.828672
vt 0.435791 0.828672
vt 0.435084 0.828672
vt 0.447472 0.930035
vt 0.449074 0.930035
vt 0.449660 0.928875
vt 0.446910 0.928875
vt 0.446330 0.930035
vt 0.444949 0.928875
vt 0.446316 0.930035
vt 0.444925 0.928875
vt 0.450196 0.930035
vt 0.450182 0.930035
vt 0.449040 0.930035
vt 0.449602 0.928875
vt 0.447439 0.930035
vt 0.446852 0.928875
vt 0.425926 0.930035
vt 0.427528 0.930035
vt 0.428090 0.928875
vt 0.425340 0.928875
vt 0.428670 0.930035
vt 0.430051 0.928875
vt 0.428684 0.930035
vt 0.430075 0.928875
vt 0.424818 0.930035
vt 0.424804 0.930035
vt 0.425960 0.930035
vt 0.425398 0.928875
vt 0.427561 0.930035
vt 0.428148 0.928875
vt 0.450518 0.933249
vt 0.449209 0.933249
vt 0.448256 0.934661
vt 0.447342 0.933249
vt 0.449170 0.933249
vt 0.450501 0.933249
vt 0.445995 0.933249
vt 0.447303 0.933249
vt 0.446011 0.933249
vt 0.424482 0.933249
vt 0.426744 0.934661
vt 0.425791 0.933249
vt 0.427658 0.933249
vt 0.425830 0.933249
vt 0.424499 0.933249
vt 0.429005 0.933249
vt 0.427697 0.933249
vt 0.428989 0.933249
vt 0.969452 0.057311
vt 0.936799 0.057311
s 1
usemtl restaurant.005
f 410/121/143 411/122/143 412/123/143 413/124/143
f 118/125/144 116/125/144 115/126/144
f 415/123/145 416/122/146 421/122/146 419/123/145
f 114/127/147 112/127/147 119/128/147 121/128/147
f 128/129/148 125/130/148 123/131/149 124/132/149
f 119/128/147 112/127/147 127/127/147
f 126/133/144 120/134/144 123/131/144 125/130/144
f 114/127/143 121/128/143 122/134/143 118/133/143
f 116/133/144 118/133/144 122/134/144 120/134/144
f 111/135/147 112/136/147 114/136/147
f 120/137/150 119/138/150 124/139/149 123/140/149
f 125/141/148 128/142/148 127/143/151 126/144/151
f 112/145/152 116/146/152 126/146/151 127/145/151
f 119/128/147 127/127/147 128/129/147 124/132/147
f 116/133/144 120/134/144 126/133/144
f 113/147/152 117/148/152 115/148/152 111/147/152
f 117/126/144 118/125/144 115/126/144
f 111/135/147 114/136/147 113/135/147
f 122/149/153 121/150/153 130/151/153 129/152/153
f 120/149/153 122/149/153 129/152/153 132/152/153
f 119/150/153 120/149/153 132/152/153 131/151/153
f 121/150/153 119/150/153 131/151/153 130/151/153
f 201/153/154 190/153/155 226/154/156 229/154/157
f 197/155/158 202/156/159 230/157/160 233/158/161
f 210/159/162 241/160/163 238/161/164 205/162/165
f 238/163/153 241/164/153 225/165/153 222/166/153
f 218/162/166 249/161/167 246/160/168 213/159/169
f 193/167/170 198/167/171 234/168/172 221/168/173
f 229/169/153 226/169/153 242/170/153 245/170/153
f 214/171/174 245/172/175 242/172/176 209/171/177
f 233/166/153 230/165/153 246/164/153 249/163/153
f 206/173/178 237/174/179 250/174/180 217/173/181
f 172/175/182 387/176/183 403/177/183 405/178/182
f 134/179/184 150/180/185 151/181/186 135/182/187
f 136/183/188 152/184/189 153/185/190 137/186/191
f 133/187/192 149/188/193 150/180/185 134/179/184
f 138/189/194 380/190/195 382/191/196 137/192/191
f 140/193/197 376/194/198 147/195/199 139/196/200
f 135/197/187 143/198/201 378/199/202 134/200/184
f 133/201/192 141/202/203 376/194/198 140/193/197
f 134/200/184 378/199/202 141/202/203 133/201/192
f 136/203/188 383/204/204 143/198/201 135/197/187
f 161/205/205 177/206/206 184/207/207 168/208/208
f 148/209/209 377/210/210 392/211/210 397/212/209
f 137/186/191 153/185/190 154/213/211 138/214/194
f 137/192/191 382/191/196 383/204/204 136/203/188
f 135/182/187 151/181/186 152/184/189 136/183/188
f 379/215/212 144/216/213 396/217/213 394/218/212
f 159/219/214 157/220/214 147/221/215 380/222/216
f 139/223/200 155/224/217 156/225/218 140/226/197
f 138/214/194 154/213/211 155/224/217 139/223/200
f 173/227/219 172/175/182 405/178/182 408/228/219
f 144/216/213 145/229/220 399/230/220 396/217/213
f 174/231/221 173/227/219 408/228/219 407/232/221
f 145/229/220 146/233/222 398/234/222 399/230/220
f 176/235/223 389/236/224 404/237/224 406/238/223
f 160/239/225 159/240/225 380/190/195 138/189/194
f 158/241/226 160/242/226 138/243/226 139/244/226
f 158/245/227 157/246/227 159/240/227 160/239/227
f 381/247/228 148/209/209 397/212/209 395/248/228
f 163/249/229 179/250/230 178/251/231 162/252/232
f 165/253/233 181/254/234 180/255/235 164/256/236
f 162/252/232 178/251/231 177/206/206 161/205/205
f 166/257/237 165/258/233 390/259/238 388/260/239
f 168/261/208 167/262/240 175/263/241 384/264/242
f 163/265/229 162/266/232 386/267/243 171/268/244
f 161/269/205 168/261/208 384/264/242 169/270/245
f 162/266/232 161/269/205 169/270/245 386/267/243
f 164/271/236 163/265/229 171/268/244 391/272/246
f 389/236/224 174/231/221 407/232/221 404/237/224
f 166/273/237 182/274/247 181/254/234 165/253/233
f 165/258/233 164/271/236 391/272/246 390/259/238
f 164/256/236 180/255/235 179/250/230 163/249/229
f 146/233/222 381/247/228 395/248/228 398/234/222
f 187/275/248 388/276/249 175/277/250 185/278/248
f 168/208/208 184/207/207 183/279/251 167/280/240
f 167/280/240 183/279/251 182/274/247 166/273/237
f 387/176/183 170/281/252 409/282/252 403/177/183
f 142/283/253 379/215/212 394/218/212 400/284/253
f 170/281/252 385/285/254 401/286/254 409/282/252
f 377/210/210 142/283/253 400/284/253 392/211/210
f 385/285/254 176/235/223 406/238/223 401/286/254
f 187/287/255 188/288/255 166/257/237 388/260/239
f 186/289/256 167/290/256 166/291/256 188/292/256
f 186/293/257 188/288/257 187/287/257 185/294/257
f 221/295/153 234/295/153 250/296/153 237/296/153
f 222/158/258 194/155/259 196/297/260 224/298/261
f 224/298/261 196/297/260 195/299/262 223/300/263
f 223/300/263 195/299/262 193/167/170 221/168/173
f 197/155/158 233/158/161 235/298/264 199/297/265
f 199/297/265 235/298/264 236/300/266 200/299/267
f 200/299/267 236/300/266 234/168/172 198/167/171
f 226/154/156 190/153/155 192/301/268 228/302/269
f 228/302/269 192/301/268 191/303/270 227/304/271
f 227/304/271 191/303/270 189/156/272 225/157/273
f 238/163/153 222/166/153 224/305/153 240/306/153
f 240/306/153 224/305/153 223/307/153 239/308/153
f 239/308/153 223/307/153 221/295/153 237/296/153
f 233/166/153 249/163/153 251/306/153 235/305/153
f 235/305/153 251/306/153 252/308/153 236/307/153
f 236/307/153 252/308/153 250/296/153 234/295/153
f 242/170/153 226/169/153 228/309/153 244/310/153
f 244/310/153 228/309/153 227/311/153 243/312/153
f 243/312/153 227/311/153 225/165/153 241/164/153
f 230/157/160 202/156/159 204/303/274 232/304/275
f 232/304/275 204/303/274 203/301/276 231/302/277
f 231/302/277 203/301/276 201/153/154 229/154/157
f 246/164/153 230/165/153 232/311/153 248/312/153
f 248/312/153 232/311/153 231/309/153 247/310/153
f 247/310/153 231/309/153 229/169/153 245/170/153
f 237/174/179 206/173/178 208/313/278 239/314/279
f 239/314/279 208/313/278 207/315/280 240/316/281
f 240/316/281 207/315/280 205/162/165 238/161/164
f 209/171/177 242/172/176 244/317/282 211/318/283
f 211/318/283 244/317/282 243/319/284 212/320/285
f 212/320/285 243/319/284 241/160/163 210/159/162
f 249/161/167 218/162/166 220/315/286 251/316/287
f 251/316/287 220/315/286 219/313/288 252/314/289
f 252/314/289 219/313/288 217/173/181 250/174/180
f 213/159/169 246/160/168 248/319/290 215/320/291
f 215/320/291 248/319/290 247/317/292 216/318/293
f 216/318/293 247/317/292 245/172/175 214/171/174
f 189/156/272 194/155/259 222/158/258 225/157/273
f 213/321/153 215/322/153 253/323/153
f 215/322/153 216/324/153 253/323/153
f 216/324/153 214/325/153 253/323/153
f 214/325/153 209/325/153 253/323/153
f 209/325/153 211/324/153 253/323/153
f 211/324/153 212/322/153 253/323/153
f 212/322/153 210/321/153 253/323/153
f 210/321/153 205/326/153 253/323/153
f 205/326/153 207/327/153 253/323/153
f 207/327/153 208/328/153 253/323/153
f 208/328/153 206/329/153 253/323/153
f 206/329/153 217/329/153 253/323/153
f 217/329/153 219/328/153 253/323/153
f 219/328/153 220/327/153 253/323/153
f 220/327/153 218/326/153 253/323/153
f 218/326/153 213/321/153 253/323/153
f 269/330/294 277/331/295 270/332/296 262/333/297
f 254/334/298 262/335/297 263/336/299 255/337/300
f 271/338/144 272/339/144 264/340/144 263/341/144
f 256/342/301 264/340/302 265/343/303 257/344/304
f 273/345/305 274/346/306 266/347/307 265/348/303
f 258/349/308 266/350/307 267/351/309 259/352/310
f 275/353/147 276/354/147 268/355/147 267/351/147
f 260/356/311 268/357/312 269/358/294 261/359/313
f 277/331/295 285/360/314 278/361/315 270/332/296
f 262/335/297 270/362/296 271/363/316 263/336/299
f 279/364/144 280/365/144 272/339/144 271/338/144
f 264/340/302 272/339/317 273/366/305 265/343/303
f 281/367/318 282/368/319 274/346/306 273/345/305
f 266/350/307 274/369/306 275/353/320 267/351/309
f 283/370/147 284/371/147 276/354/147 275/353/147
f 268/357/312 276/372/321 277/373/295 269/358/294
f 285/360/314 293/374/322 286/375/323 278/361/315
f 270/362/296 278/376/315 279/377/324 271/363/316
f 287/378/144 288/379/144 280/365/144 279/364/144
f 272/339/317 280/365/325 281/380/318 273/366/305
f 289/381/326 290/382/327 282/368/319 281/367/318
f 274/369/306 282/383/319 283/370/328 275/353/320
f 291/384/147 292/385/147 284/371/147 283/370/147
f 276/372/321 284/386/329 285/387/314 277/373/295
f 293/374/322 301/360/330 294/361/331 286/375/323
f 278/376/315 286/388/323 287/389/332 279/377/324
f 295/364/144 296/365/144 288/379/144 287/378/144
f 280/365/325 288/379/146 289/390/326 281/380/318
f 297/367/333 298/368/334 290/382/327 289/381/326
f 282/383/319 290/391/327 291/384/145 283/370/328
f 299/370/147 300/371/147 292/385/147 291/384/147
f 284/386/329 292/392/335 293/393/322 285/387/314
f 301/360/330 309/331/336 302/332/337 294/361/331
f 286/388/323 294/376/331 295/377/338 287/389/332
f 303/338/144 304/339/144 296/365/144 295/364/144
f 288/379/146 296/365/339 297/380/333 289/390/326
f 305/345/340 306/346/341 298/368/334 297/367/333
f 290/391/327 298/383/334 299/370/342 291/384/145
f 307/353/147 308/354/147 300/371/147 299/370/147
f 292/392/335 300/386/343 301/387/330 293/393/322
f 309/331/336 317/330/344 310/333/345 302/332/337
f 294/376/331 302/362/337 303/363/346 295/377/338
f 311/341/144 312/340/144 304/339/144 303/338/144
f 296/365/339 304/339/347 305/366/340 297/380/333
f 313/348/348 314/347/349 306/346/341 305/345/340
f 298/383/334 306/369/341 307/353/350 299/370/342
f 315/351/147 316/355/147 308/354/147 307/353/147
f 300/386/343 308/372/351 309/373/336 301/387/330
f 317/330/344 325/349/352 318/344/353 310/333/345
f 302/362/337 310/335/345 311/336/354 303/363/346
f 319/342/144 320/342/144 312/340/144 311/341/144
f 304/339/347 312/340/355 313/343/348 305/366/340
f 321/394/356 322/395/357 314/347/349 313/348/348
f 306/369/341 314/350/349 315/351/358 307/353/350
f 323/352/147 324/352/147 316/355/147 315/351/147
f 308/372/351 316/357/359 317/358/344 309/373/336
f 267/351/147 268/355/147 260/352/311 259/352/310
f 310/335/345 318/334/353 319/337/360 311/336/354
f 257/394/304 258/395/308 329/396/361 330/397/361
f 312/340/355 320/342/362 321/344/356 313/343/348
f 263/341/144 264/340/144 256/342/301 255/342/300
f 314/350/349 322/349/357 323/352/363 315/351/358
f 265/348/303 266/347/307 258/395/308 257/394/304
f 316/357/359 324/356/364 325/359/352 317/358/344
f 256/342/301 257/344/304 330/398/365 331/399/366
f 261/349/313 254/344/298 333/398/143 326/400/143
f 259/352/310 260/352/311 327/401/367 328/401/368
f 255/342/300 256/342/301 331/399/366 332/399/369
f 254/334/298 255/337/300 332/402/369 333/403/370
f 332/404/153 331/404/153 336/405/153 339/405/153
f 260/356/311 261/359/313 326/406/371 327/407/367
f 258/349/308 259/352/310 328/401/368 329/400/372
f 318/408/152 325/409/152 346/410/152 349/411/152
f 331/404/153 330/412/153 340/413/153 336/405/153
f 327/414/153 326/415/153 338/416/153 337/417/153
f 330/412/153 329/415/153 334/416/153 340/413/153
f 326/415/153 333/412/153 341/413/153 338/416/153
f 336/418/373 343/419/373 345/419/373 339/418/373
f 329/415/153 328/414/153 335/417/153 334/416/153
f 341/420/374 339/421/374 345/422/374
f 338/423/375 341/424/375 345/419/375 344/425/375
f 335/426/376 337/426/376 344/425/376 342/425/376
f 334/423/377 342/425/377 343/419/377 340/424/377
f 337/427/378 338/428/378 344/429/378
f 327/414/153 337/417/153 335/417/153 328/414/153
f 336/421/379 340/420/379 343/422/379
f 334/428/380 335/427/380 342/429/380
f 333/412/153 332/404/153 339/405/153 341/413/153
f 323/430/152 347/410/152 346/410/152 324/430/152
f 325/409/152 324/430/152 346/410/152
f 321/408/152 348/411/152 347/410/152 322/409/152
f 323/430/152 322/409/152 347/410/152
f 319/431/152 349/411/152 348/411/152 320/431/152
f 321/408/152 320/431/152 348/411/152
f 349/432/381 346/433/381 350/434/381
f 319/431/152 318/408/152 349/411/152
f 347/433/382 348/432/382 350/434/382
f 346/433/383 347/433/383 350/434/383
f 348/432/384 349/432/384 350/434/384
f 352/435/385 359/436/385 366/437/386 353/438/386
f 353/438/386 366/437/386 365/436/387 354/435/387
f 354/435/387 365/436/387 364/439/388 355/440/388
f 355/440/388 364/439/388 363/441/389 356/442/389
f 356/442/389 363/441/389 362/443/390 357/444/390
f 357/444/390 362/443/390 361/441/391 358/442/391
f 364/445/392 365/446/393 375/447/393 374/448/392
f 358/442/391 361/441/391 360/439/394 351/440/394
f 362/449/395 363/450/396 373/451/396 372/452/395
f 360/445/397 361/450/398 371/451/398 369/448/397
f 359/446/399 360/445/397 369/448/397 368/447/399
f 365/446/393 366/453/400 370/454/400 375/447/393
f 363/450/396 364/445/392 374/448/392 373/451/396
f 361/450/398 362/449/395 372/452/395 371/451/398
f 366/453/400 359/446/399 368/447/399 370/454/400
f 367/455/153 368/456/153 369/455/153
f 367/455/153 370/457/153 368/456/153
f 367/455/153 369/455/153 371/458/153
f 367/455/153 371/458/153 372/459/153
f 367/455/153 372/459/153 373/458/153
f 367/455/153 373/458/153 374/455/153
f 367/455/153 374/455/153 375/456/153
f 367/455/153 375/456/153 370/457/153
f 261/349/313 269/330/294 262/333/297 254/344/298
f 157/246/401 158/245/401 139/196/200 147/195/199
f 185/294/402 175/263/241 167/262/240 186/293/402
f 140/226/197 156/225/218 149/188/193 133/187/192
f 351/440/394 360/439/394 359/436/385 352/435/385
f 377/460/403 148/461/404 376/462/404 141/463/403
f 142/464/405 377/460/403 141/463/403 378/465/405
f 379/466/406 142/464/405 378/465/405 143/467/406
f 381/468/407 146/469/408 380/222/216 147/221/215
f 148/461/404 381/468/407 147/221/215 376/462/404
f 146/469/408 145/470/409 382/471/409 380/222/216
f 145/470/409 144/472/410 383/473/410 382/471/409
f 144/472/410 379/466/406 143/467/406 383/473/410
f 176/474/411 385/475/412 169/476/412 384/477/411
f 385/475/412 170/478/413 386/479/413 169/476/412
f 170/478/413 387/480/414 171/481/414 386/479/413
f 174/482/415 389/483/416 175/277/250 388/276/249
f 389/483/416 176/474/411 384/477/411 175/277/250
f 173/484/417 174/482/415 388/276/249 390/485/417
f 172/486/418 173/484/417 390/485/417 391/487/418
f 387/480/414 172/486/418 391/487/418 171/481/414
f 395/488/419 397/489/420 393/490/153
f 397/489/420 392/491/421 393/490/153
f 399/492/422 398/493/423 393/490/153
f 394/494/424 396/495/425 393/490/153
f 400/496/426 394/494/424 393/490/153
f 396/495/425 399/492/422 393/490/153
f 392/491/421 400/496/426 393/490/153
f 398/493/423 395/488/419 393/490/153
f 404/497/427 402/498/153 406/499/428
f 406/499/428 402/498/153 401/500/429
f 408/501/430 402/498/153 407/502/431
f 403/503/432 402/498/153 405/504/433
f 409/505/434 402/498/153 403/503/432
f 405/504/433 402/498/153 408/501/430
f 401/500/429 402/498/153 409/505/434
f 407/502/431 402/498/153 404/497/427
f 113/135/143 114/136/143 411/122/143 410/121/143
f 114/136/143 118/125/143 412/123/143 411/122/143
f 118/125/143 117/126/143 413/124/143 412/123/143
f 117/126/143 113/135/143 410/121/143 413/124/143
f 115/126/361 116/125/361 415/123/361 414/506/361
f 116/125/361 112/136/361 416/122/361 415/123/361
f 112/136/361 111/135/361 417/507/361 416/122/361
f 111/135/361 115/126/361 414/506/361 417/507/361
f 418/506/361 419/123/361 421/122/361 420/507/361
f 414/506/335 415/123/145 419/123/145 418/506/335
f 416/122/146 417/507/332 420/507/332 421/122/146
f 417/507/332 414/506/335 418/506/335 420/507/332
