# Blender 4.5.3 LTS
# www.blender.org
mtllib SYONCORNERCABINET.mtl
o kitchencabinet_corner_Cube.223
v -0.892355 2.075056 0.800000
v -0.967412 2.000000 -0.000000
v 0.232588 2.000000 0.800000
v 1.032588 2.000000 -0.000000
v 0.232588 2.075057 1.924944
v 1.032588 2.000000 2.000000
v -0.917412 4.000000 0.750000
v -0.892355 3.874944 0.800000
v -0.917412 4.000000 0.050000
v -0.967412 3.950000 -0.000000
v 0.232588 3.950000 0.800000
v 0.282588 4.000000 0.750000
v 1.032588 3.950000 -0.000000
v 0.982588 4.000000 0.050000
v 0.282588 4.000000 1.950000
v 0.232588 3.874944 1.924943
v 0.982588 4.000000 1.950000
v 1.032588 3.950000 2.000000
v 0.232588 2.075056 1.089197
v 0.232588 3.874944 1.089197
v 0.982588 4.000000 0.389055
v 1.032588 3.950000 0.356901
v -0.056608 2.075056 0.800000
v -0.056608 3.874944 0.800000
v 0.232588 2.000000 1.014140
v 0.232588 2.000000 2.000000
v 0.232588 3.950000 2.000000
v 0.232588 3.950000 1.014140
v -0.967412 2.000000 0.800000
v -0.967412 3.950000 0.800000
v 0.018448 2.000000 0.800000
v 0.018448 3.950000 0.800000
v 0.981121 2.075056 1.089197
v 0.981121 2.075057 1.924944
v 0.981121 3.874944 1.924943
v 0.981121 3.874944 1.089197
v -0.892355 2.075056 0.051468
v -0.892355 3.874944 0.051468
v -0.056608 2.075060 0.051468
v -0.056608 3.874944 0.051468
v -0.056608 3.874944 0.744953
v -0.056608 2.075056 0.744953
v -0.892355 2.075056 0.744953
v -0.892355 3.874944 0.744953
v 0.287635 3.874944 1.924943
v 0.287635 2.075057 1.924944
v 0.287635 2.075056 1.089197
v 0.287635 3.874944 1.089197
v 0.981121 3.874944 0.048229
v 0.981121 2.075056 0.048229
v 0.287638 3.874944 0.744953
v 0.287638 2.075056 0.744953
vn -1.0000 -0.0000 -0.0000
vn -0.0000 1.0000 -0.0000
vn -0.0000 -1.0000 -0.0000
vn -0.0000 -0.0000 1.0000
vn -0.7071 0.7071 -0.0000
vn -0.0000 -0.0000 -1.0000
vn -0.0000 0.7071 0.7071
vn 1.0000 -0.0000 -0.0000
vn -0.0000 0.7071 -0.7071
vn -0.0000 -0.7071 -0.7071
vn -0.9045 0.3015 0.3015
vn -0.9045 -0.3015 0.3015
vn -0.3015 0.3015 0.9045
vn -0.3015 -0.3015 0.9045
vn -0.1947 -0.9809 -0.0000
vn -0.4723 0.8067 0.3553
vn 0.6366 -0.7316 0.2439
vn 0.1230 0.8210 0.5575
vn -0.5399 0.6273 0.5612
vn -0.5552 -0.5884 0.5878
vn 0.7071 0.7071 -0.0000
vn -0.1451 0.9556 -0.2566
vn 0.7071 -0.7071 -0.0000
vn -0.3655 -0.8225 -0.4357
vn -0.7068 -0.0341 0.7066
vn -0.5690 0.5914 0.5714
vn 0.6338 0.4481 -0.6305
vn 0.1325 0.9634 -0.2332
vt 0.941599 0.065509
vt 0.941599 0.130551
vt 0.935202 0.130551
vt 0.935202 0.065509
vt 0.935202 0.049884
vt 0.935202 0.114926
vt 0.936541 0.147843
vt 0.971048 0.147843
vt 0.936233 0.147843
vt 0.935202 0.034259
vt 0.971048 0.034259
vt 0.964847 0.034259
vt 0.971048 0.049884
vt 0.971048 0.114926
vt 0.935202 0.147843
vt 0.969709 0.147843
vt 0.970017 0.147843
vt 0.941736 0.147843
vt 0.941599 0.034259
vt 0.935202 0.132218
vt 0.971048 0.130551
vt 0.971048 0.065509
vt 0.971048 0.132218
vt 0.936696 0.147843
vt 0.935202 0.146176
vt 0.964847 0.146176
vt 0.971048 0.146176
vt 0.941599 0.130551
vt 0.968806 0.068012
vt 0.968806 0.128047
vt 0.968806 0.128047
vt 0.968806 0.068012
vt 0.969554 0.147843
vt 0.941599 0.146176
vt 0.964847 0.130551
vt 0.964847 0.065509
vt 0.936099 0.147843
vt 0.970151 0.147843
vt 0.943841 0.068012
vt 0.943841 0.128047
vt 0.937459 0.068012
vt 0.937459 0.128047
vt 0.962590 0.068012
vt 0.962590 0.128047
vt 0.943841 0.128047
vt 0.943841 0.068012
vt 0.937459 0.068012
vt 0.937459 0.128047
s 1
usemtl 
f 25/1/1 28/2/1 11/3/1 3/4/1
f 29/5/1 30/6/1 10/6/1 2/5/1
f 7/7/2 12/8/2 14/8/2 9/9/2
f 2/10/3 4/11/3 3/11/3 31/12/3 29/10/3
f 6/13/4 18/14/4 27/14/4 26/13/4
f 12/15/2 15/16/2 17/17/2 21/18/2 14/15/2
f 4/10/3 6/11/3 26/11/3 25/19/3 3/10/3
f 7/20/5 9/20/5 10/3/5 30/3/5
f 2/4/6 10/3/6 13/21/6 4/22/6
f 17/23/7 15/23/7 27/21/7 18/21/7
f 12/8/7 7/24/7 30/25/7 32/26/7 11/27/7
f 4/4/8 13/3/8 22/28/8 18/21/8 6/22/8
f 15/33/5 12/15/5 11/25/5 28/34/5 27/27/5
f 3/22/4 11/21/4 32/35/4 31/36/4
f 9/37/9 14/38/9 13/27/9 10/25/9
f 5/32/1 19/39/11 25/1/1 26/22/1
f 16/31/1 5/32/1 26/22/1 27/21/1
f 20/40/12 16/31/1 27/21/1 28/2/1
f 1/41/4 8/42/4 30/3/4 29/4/4
f 19/39/11 20/40/12 28/2/1 25/1/1
f 23/43/13 1/41/4 29/4/4 31/36/4
f 8/42/4 24/44/14 32/35/4 30/3/4
f 24/44/14 23/43/13 31/36/4 32/35/4
f 45/30/10 48/45/17 36/40/15 35/31/10
f 41/44/24 44/48/23 38/42/23 40/44/20
f 24/44/14 8/42/23 44/48/23 41/44/24
f 8/42/23 1/41/21 43/47/21 44/48/23
f 1/41/21 23/43/13 42/43/22 43/47/21
f 23/43/13 24/44/14 41/44/24 42/43/22
f 19/39/11 5/32/9 46/29/9 47/46/18
f 16/31/10 20/40/12 48/45/17 45/30/10
f 20/40/12 19/39/11 47/46/18 48/45/17
f 5/32/9 16/31/10 45/30/10 46/29/9
f 42/43/22 41/44/24 51/44/27 52/43/28
f 13/27/21 14/38/21 17/23/21 18/21/21
f 41/44/24 40/44/20 49/40/25 36/40/15 48/45/17 51/44/27
f 47/46/18 52/43/28 51/44/27 48/45/17
usemtl Material.002
f 47/46/18 46/29/9 34/32/9 33/39/16
f 43/47/21 42/43/22 39/43/19 37/41/21
f 47/46/18 33/39/16 50/39/26 39/43/19 42/43/22 52/43/28
usemtl Material.003
f 46/29/9 45/30/10 35/31/10 34/32/9
f 34/32/1 35/31/1 36/40/15 33/39/16
f 39/43/19 40/44/20 38/42/4 37/41/4
f 44/48/23 43/47/21 37/41/21 38/42/23
f 33/39/16 36/40/15 49/40/25 50/39/26
f 39/43/19 50/39/26 49/40/25 40/44/20
l 4 50
l 3 52
l 25 47
l 26 46
l 6 34
l 31 42
l 2 37
l 29 43
l 17 35
l 14 49
l 15 45
l 12 51
l 32 41
l 28 48
l 7 44
l 9 38
o door
v -0.552388 2.100000 2.261455
v -0.545617 2.140000 2.300878
v -0.591810 2.140000 2.268225
v -0.545618 3.860000 2.300878
v -0.552388 3.900000 2.261455
v -0.591811 3.860000 2.268225
v -0.579468 2.100000 2.103764
v -0.618891 2.140000 2.110534
v -0.618891 3.860000 2.110534
v -0.579468 3.900000 2.103764
v 0.255782 2.100000 2.122668
v 0.295205 2.140000 2.115898
v 0.262552 2.140000 2.162091
v 0.255782 3.900000 2.122668
v 0.262552 3.860000 2.162091
v 0.295205 3.860000 2.115898
v 0.268125 2.140000 1.958206
v 0.228702 2.100000 1.964976
v 0.228702 3.900000 1.964976
v 0.268124 3.860000 1.958206
v -0.421650 2.350000 2.372838
v -0.484175 2.403978 2.327661
v -0.506210 2.350001 2.331445
v -0.484175 2.296024 2.327661
v -0.430977 2.273666 2.318525
v -0.377778 2.296024 2.309390
v -0.355742 2.350001 2.305605
v -0.377778 2.403978 2.309390
v -0.430977 2.426336 2.318525
v -0.465822 2.391758 2.362345
v -0.478445 2.391758 2.288841
v -0.482869 2.350000 2.365273
v -0.495492 2.350000 2.291769
v -0.465822 2.308241 2.362345
v -0.478445 2.308241 2.288841
v -0.424665 2.290944 2.355278
v -0.437288 2.290944 2.281774
v -0.383509 2.308241 2.348210
v -0.396132 2.308241 2.274706
v -0.366461 2.350000 2.345282
v -0.379084 2.350000 2.271778
v -0.383509 2.391758 2.348210
v -0.396132 2.391758 2.274706
v -0.424665 2.409055 2.355278
v -0.437288 2.409055 2.281774
vn 0.4849 -0.3416 0.8051
vn 0.4849 0.3416 0.8051
vn -0.1885 0.3416 0.9208
vn -0.1885 -0.3416 0.9208
vn 0.1862 0.7173 -0.6714
vn -0.3995 0.7173 -0.5709
vn -0.2788 0.8756 0.3945
vn 0.3945 0.8756 0.2788
vn 0.6003 -0.2971 -0.7426
vn 0.6003 0.2971 -0.7426
vn 0.9856 -0.0000 -0.1693
vn -0.2788 -0.8756 0.3945
vn -0.6699 -0.4606 0.5823
vn -0.6699 0.4606 0.5823
vn 0.3945 -0.8756 0.2788
vn 0.8258 -0.4606 0.3255
vn 0.8258 0.4606 0.3255
vn -0.3995 -0.7173 -0.5709
vn -0.8136 -0.2971 -0.4998
vn -0.8136 0.2971 -0.4998
vn 0.1862 -0.7173 -0.6714
vn 0.3633 0.2042 0.9090
vn 0.1620 0.2888 0.9436
vn 0.1693 -0.0000 0.9856
vn 0.5611 0.6416 -0.5230
vn 0.8231 -0.0000 -0.5679
vn -0.9654 -0.0000 -0.2608
vn -0.7035 0.6416 -0.3058
vn -0.0712 -0.9073 -0.4143
vn -0.7035 -0.6416 -0.3058
vn 0.9654 -0.0000 0.2608
vn 0.7035 -0.6416 0.3058
vn 0.0712 0.9073 0.4144
vn 0.7035 0.6416 0.3058
vn -0.5612 -0.6416 0.5229
vn -0.8231 -0.0000 0.5679
vn -0.5611 0.6416 0.5230
vn -0.5612 0.6416 0.5230
vn 0.0712 -0.9073 0.4143
vn -0.0712 0.9073 -0.4144
vn -0.0393 0.2042 0.9781
vn 0.5612 -0.6416 -0.5229
vn 0.3633 -0.2042 0.9090
vn 0.4467 -0.0000 0.8947
vn -0.0393 -0.2042 0.9781
vn 0.1620 -0.2888 0.9436
vn -0.1226 -0.0000 0.9925
vn -0.9856 -0.0000 0.1693
vt 0.667878 0.092808
vt 0.667878 0.136169
vt 0.657765 0.136169
vt 0.657765 0.092808
vt 0.667878 0.155130
vt 0.657765 0.155130
vt 0.668371 0.077183
vt 0.668371 0.120544
vt 0.657765 0.058223
vt 0.657765 0.061558
vt 0.657271 0.061558
vt 0.657765 0.167419
vt 0.657765 0.170755
vt 0.657271 0.167419
vt 0.667878 0.058223
vt 0.668371 0.061558
vt 0.667878 0.061558
vt 0.667878 0.170755
vt 0.667878 0.167419
vt 0.668371 0.167419
vt 0.657765 0.042598
vt 0.657271 0.045933
vt 0.657271 0.136169
vt 0.657271 0.092808
vt 0.657271 0.151794
vt 0.667878 0.042598
vt 0.668371 0.045933
vt 0.668371 0.151794
vt 0.668371 0.092808
vt 0.668371 0.136169
vt 0.798466 0.130479
vt 0.796875 0.131921
vt 0.796875 0.111372
vt 0.798466 0.099229
vt 0.798932 0.100248
vt 0.799784 0.080122
vt 0.799125 0.080122
vt 0.794625 0.080122
vt 0.793966 0.080122
vt 0.794818 0.100248
vt 0.795284 0.099229
vt 0.796875 0.059572
vt 0.796875 0.058131
vt 0.794818 0.059996
vt 0.795284 0.061015
vt 0.799784 0.095747
vt 0.799125 0.111372
vt 0.798466 0.092265
vt 0.798932 0.075621
vt 0.796875 0.117737
vt 0.798932 0.115873
vt 0.794818 0.075621
vt 0.795284 0.092265
vt 0.794625 0.111372
vt 0.793966 0.095747
vt 0.794818 0.115873
vt 0.795284 0.130479
vt 0.796875 0.073756
vt 0.796875 0.090822
vt 0.796875 0.100671
vt 0.796875 0.102112
vt 0.798466 0.061015
vt 0.798932 0.059996
s 1
usemtl Material.001
f 94/79/50 96/80/51 73/81/52
f 95/82/53 80/83/53 79/84/54 93/85/54
f 85/86/55 75/87/55 74/88/56 83/89/56
f 89/90/57 77/91/57 76/92/58 87/93/58
f 79/94/59 92/95/59 90/96/60 78/97/60
f 81/98/61 96/80/61 94/79/62 80/99/62
f 76/100/63 86/101/63 84/102/64 75/103/64
f 74/104/65 82/105/66 96/80/61 81/98/61
f 75/103/64 84/102/64 82/105/66 74/104/65
f 77/106/67 88/107/67 86/101/63 76/100/63
f 97/108/68 81/109/68 80/83/53 95/82/53
f 96/80/51 82/105/69 73/81/52
f 91/110/70 78/111/70 77/91/57 89/90/57
f 78/97/60 90/96/60 88/107/67 77/106/67
f 83/89/56 74/88/56 81/109/68 97/108/68
f 90/96/71 92/95/72 73/81/52
f 80/99/62 94/79/62 92/95/59 79/94/59
f 87/93/58 76/92/58 75/87/55 85/86/55
f 93/85/54 79/84/54 78/111/70 91/110/70
f 86/101/73 88/107/74 73/81/52
f 84/102/75 86/101/73 73/81/52
f 88/107/74 90/96/71 73/81/52
f 82/105/69 84/102/75 73/81/52
f 92/95/72 94/79/50 73/81/52
usemtl Material.005
f 65/49/29 67/50/30 56/51/31 54/52/32
f 71/53/33 62/54/34 57/54/35 66/53/36
f 69/55/37 72/56/38 68/56/39 64/55/39
f 53/57/40 54/58/32 55/59/41
f 56/60/31 57/61/35 58/62/42
f 63/63/43 64/64/44 65/65/29
f 66/66/36 67/67/30 68/68/45
f 59/69/46 53/69/40 55/70/41 60/70/47
f 54/52/32 56/51/31 58/71/42 55/72/41
f 57/54/35 62/54/34 61/73/48 58/73/42
f 63/74/43 70/74/49 69/75/37 64/75/44
f 71/53/33 66/53/36 68/76/45 72/76/38
f 67/50/30 65/49/29 64/77/44 68/78/45
f 53/57/40 63/63/43 65/65/29 54/58/32
f 66/66/36 57/61/35 56/60/31 67/67/30
f 59/69/46 70/74/49 63/74/43 53/69/40
f 55/72/76 58/71/76 61/73/48 60/70/47
f 71/53/33 72/76/38 69/55/37 70/74/49 59/69/46 60/70/47 61/73/48 62/54/34
